<svg width="466" height="200" viewBox="0 0 466 200" fill="none" xmlns="http://www.w3.org/2000/svg">
<g clip-path="url(#clip0_4023_2356)">
<path d="M392.898 89.2459L371.18 100.895L371.554 96.1793L386.719 78.9696L392.898 89.2459Z" fill="#2785BA"/>
<path d="M372.607 68.8748L422.294 118.567C424.631 120.903 428.428 119.893 429.483 116.655L465.394 6.33302C466.566 2.73211 463.513 -0.812576 460.083 0.166237L346.348 32.6587C342.984 33.6197 341.924 38.1866 344.47 40.7372L372.604 68.8748" fill="#2FA8EC"/>
<path d="M450.153 15.8141L386.591 82.8462L371.494 100.623C370.351 101.858 368.408 100.805 368.651 99.0848L372.887 69.1377L450.153 15.8141Z" fill="#2E98D4"/>
<path d="M0.713068 186.051C0.627482 186.051 0.541896 186.036 0.458687 186C0.0901904 185.849 -0.092869 185.405 0.0473973 185.009C0.308911 184.273 0.582311 183.531 0.855712 182.803C1.00311 182.409 1.41915 182.223 1.78527 182.379C2.15139 182.537 2.32732 182.984 2.17992 183.378C1.9089 184.096 1.64025 184.83 1.38112 185.555C1.27176 185.86 1.00073 186.049 0.715446 186.049L0.713068 186.051ZM158.013 185.466C157.999 185.466 157.985 185.466 157.968 185.466C156.991 185.402 155.997 185.292 155.013 185.144C154.623 185.085 154.352 184.697 154.407 184.278C154.462 183.859 154.821 183.567 155.213 183.626C156.159 183.769 157.117 183.874 158.056 183.935C158.449 183.961 158.748 184.326 158.724 184.748C158.701 185.154 158.387 185.469 158.013 185.469V185.466ZM165.281 185.157C164.932 185.157 164.625 184.881 164.575 184.497C164.52 184.078 164.791 183.69 165.181 183.631C166.113 183.491 167.059 183.307 167.994 183.087C168.379 182.997 168.759 183.258 168.842 183.672C168.926 184.086 168.683 184.495 168.298 184.584C167.328 184.812 166.346 185.003 165.376 185.149C165.343 185.154 165.31 185.157 165.276 185.157H165.281ZM148.026 183.365C147.952 183.365 147.879 183.353 147.805 183.327C146.882 183.002 145.946 182.637 145.023 182.243C144.657 182.087 144.479 181.64 144.624 181.247C144.769 180.853 145.183 180.661 145.551 180.817C146.447 181.201 147.356 181.553 148.249 181.868C148.623 182.001 148.827 182.432 148.706 182.834C148.608 183.156 148.328 183.363 148.028 183.363L148.026 183.365ZM175.093 182.251C174.812 182.251 174.546 182.072 174.434 181.776C174.284 181.385 174.458 180.935 174.822 180.774C175.694 180.388 176.576 179.961 177.439 179.509C177.793 179.325 178.221 179.481 178.392 179.861C178.566 180.242 178.419 180.702 178.064 180.886C177.175 181.354 176.267 181.794 175.364 182.192C175.276 182.231 175.183 182.251 175.093 182.251ZM138.719 178.916C138.6 178.916 138.481 178.885 138.371 178.819C137.527 178.313 136.674 177.771 135.832 177.209C135.497 176.986 135.395 176.514 135.602 176.153C135.809 175.793 136.248 175.683 136.584 175.905C137.406 176.455 138.243 176.984 139.068 177.48C139.413 177.687 139.534 178.154 139.341 178.522C139.211 178.773 138.968 178.916 138.719 178.916ZM219.431 177.577C219.039 177.577 218.718 177.234 218.718 176.81C218.718 176.386 219.036 176.043 219.431 176.043C220.382 176.043 221.352 176.018 222.315 175.974C222.705 175.956 223.04 176.284 223.057 176.708C223.073 177.132 222.769 177.49 222.374 177.508C221.39 177.554 220.401 177.577 219.431 177.579V177.577ZM212.156 177.158C212.13 177.158 212.104 177.158 212.078 177.152C211.5 177.083 210.913 177.004 210.335 176.917C209.941 176.859 209.546 176.795 209.154 176.726C208.764 176.659 208.5 176.263 208.564 175.847C208.626 175.427 208.992 175.144 209.382 175.213C209.765 175.279 210.147 175.341 210.533 175.399C211.098 175.484 211.669 175.563 212.235 175.629C212.627 175.675 212.908 176.056 212.865 176.475C212.824 176.866 212.515 177.158 212.156 177.158ZM184.041 177.02C183.813 177.02 183.589 176.902 183.452 176.685C183.23 176.335 183.314 175.857 183.639 175.619C184.422 175.044 185.206 174.436 185.972 173.807C186.285 173.549 186.732 173.613 186.973 173.95C187.213 174.288 187.153 174.768 186.839 175.026C186.055 175.67 185.249 176.296 184.445 176.887C184.322 176.976 184.181 177.02 184.044 177.02H184.041ZM229.599 176.8C229.247 176.8 228.943 176.521 228.893 176.138C228.841 175.719 229.114 175.333 229.504 175.274C230.443 175.136 231.404 174.978 232.362 174.804C232.752 174.735 233.118 175.013 233.184 175.433C233.251 175.849 232.989 176.245 232.602 176.317C231.627 176.496 230.65 176.657 229.697 176.795C229.663 176.8 229.632 176.802 229.599 176.802V176.8ZM4.46222 176.7C4.35762 176.7 4.25301 176.675 4.15316 176.623C3.79893 176.439 3.64915 175.982 3.82032 175.599C4.24588 174.651 4.68807 173.702 5.13265 172.777C5.31333 172.402 5.74364 172.253 6.09311 172.45C6.44259 172.644 6.58048 173.107 6.39742 173.483C5.9576 174.395 5.52254 175.33 5.10412 176.266C4.98049 176.539 4.72611 176.7 4.46222 176.7ZM202.166 174.996C202.1 174.996 202.031 174.985 201.964 174.965C201.028 174.666 200.081 174.339 199.157 173.989C198.786 173.848 198.588 173.411 198.719 173.012C198.85 172.614 199.257 172.402 199.627 172.542C200.531 172.882 201.453 173.204 202.369 173.493C202.747 173.613 202.963 174.04 202.851 174.446C202.758 174.778 202.476 174.996 202.166 174.996ZM239.615 174.727C239.294 174.727 239.002 174.492 238.923 174.142C238.831 173.73 239.064 173.316 239.446 173.214C240.362 172.974 241.306 172.713 242.252 172.437C242.632 172.327 243.024 172.568 243.127 172.977C243.229 173.385 243.005 173.807 242.625 173.917C241.667 174.196 240.711 174.461 239.784 174.704C239.727 174.72 239.67 174.727 239.615 174.727ZM130.21 172.877C130.06 172.877 129.908 172.826 129.78 172.721C129.016 172.1 128.239 171.443 127.466 170.771C127.16 170.505 127.112 170.022 127.359 169.693C127.607 169.363 128.056 169.312 128.363 169.578C129.123 170.239 129.889 170.883 130.64 171.497C130.954 171.752 131.016 172.233 130.778 172.57C130.638 172.77 130.424 172.874 130.21 172.874V172.877ZM249.42 171.694C249.12 171.694 248.839 171.489 248.742 171.165C248.621 170.761 248.823 170.329 249.198 170.199C250.092 169.884 251.017 169.549 251.949 169.202C252.322 169.064 252.729 169.276 252.857 169.675C252.986 170.073 252.788 170.51 252.417 170.651C251.478 171.001 250.544 171.338 249.643 171.655C249.569 171.681 249.496 171.694 249.422 171.694H249.42ZM192.678 170.991C192.571 170.991 192.464 170.965 192.362 170.912C191.485 170.444 190.605 169.948 189.752 169.434C189.407 169.227 189.283 168.762 189.476 168.392C189.668 168.021 190.101 167.888 190.446 168.095C190.774 168.292 191.107 168.486 191.44 168.678C192.103 167.97 192.759 167.239 193.391 166.498C193.658 166.186 194.109 166.166 194.399 166.452C194.69 166.738 194.709 167.224 194.442 167.536C193.9 168.172 193.339 168.803 192.771 169.417C192.845 169.457 192.921 169.496 192.994 169.537C193.349 169.726 193.491 170.186 193.318 170.564C193.194 170.835 192.94 170.991 192.678 170.991ZM259.024 167.993C258.737 167.993 258.468 167.806 258.359 167.502C258.216 167.106 258.399 166.664 258.767 166.511C259.673 166.135 260.577 165.754 261.475 165.371C261.841 165.213 262.255 165.407 262.402 165.8C262.548 166.194 262.369 166.639 262.003 166.797C261.1 167.183 260.192 167.566 259.281 167.945C259.198 167.98 259.11 167.996 259.024 167.996V167.993ZM9.35728 167.086C9.2289 167.086 9.10052 167.05 8.98165 166.971C8.64644 166.748 8.54421 166.276 8.75104 165.915C9.26932 165.016 9.80185 164.124 10.3391 163.26C10.5579 162.907 11.0001 162.813 11.3281 163.048C11.6562 163.283 11.7442 163.758 11.5255 164.111C10.9977 164.962 10.4723 165.841 9.96351 166.725C9.828 166.961 9.59502 167.088 9.35728 167.088V167.086ZM122.402 165.816C122.231 165.816 122.058 165.749 121.922 165.614C121.238 164.942 120.536 164.241 119.778 163.477C119.49 163.188 119.476 162.703 119.747 162.394C120.016 162.084 120.467 162.069 120.755 162.36C121.509 163.122 122.205 163.815 122.885 164.484C123.175 164.77 123.196 165.253 122.93 165.568C122.79 165.734 122.597 165.818 122.402 165.818V165.816ZM183.963 165.312C183.818 165.312 183.67 165.264 183.542 165.164C182.75 164.543 181.963 163.894 181.203 163.232C180.896 162.966 180.848 162.483 181.096 162.153C181.343 161.824 181.792 161.773 182.099 162.038C182.843 162.685 183.611 163.319 184.384 163.924C184.702 164.175 184.771 164.653 184.54 164.995C184.4 165.202 184.184 165.31 183.963 165.31V165.312ZM268.484 163.881C268.206 163.881 267.939 163.705 267.825 163.411C267.673 163.02 267.844 162.57 268.208 162.406C269.102 162.003 269.996 161.599 270.89 161.19C271.254 161.024 271.672 161.205 271.827 161.594C271.981 161.982 271.812 162.435 271.451 162.601C270.557 163.012 269.658 163.418 268.762 163.822C268.672 163.863 268.579 163.881 268.486 163.881H268.484ZM198.517 161.716C198.372 161.716 198.227 161.67 198.099 161.571C197.78 161.323 197.709 160.842 197.939 160.5C198.498 159.672 199.047 158.813 199.575 157.949C199.791 157.597 200.234 157.497 200.562 157.73C200.89 157.962 200.982 158.437 200.766 158.79C200.226 159.674 199.663 160.551 199.092 161.399C198.952 161.606 198.736 161.716 198.515 161.716H198.517ZM277.851 159.534C277.577 159.534 277.316 159.365 277.199 159.079C277.04 158.693 277.199 158.238 277.561 158.067C278.448 157.643 279.332 157.216 280.216 156.787C280.575 156.613 280.999 156.784 281.16 157.17C281.322 157.556 281.163 158.011 280.804 158.184C279.917 158.616 279.03 159.043 278.138 159.467C278.043 159.513 277.946 159.534 277.848 159.534H277.851ZM114.999 158.271C114.821 158.271 114.643 158.2 114.505 158.057C113.806 157.331 113.107 156.608 112.405 155.884C112.12 155.59 112.111 155.105 112.384 154.801C112.658 154.494 113.109 154.486 113.392 154.778C114.093 155.501 114.795 156.227 115.494 156.953C115.777 157.247 115.786 157.732 115.513 158.036C115.372 158.192 115.187 158.271 114.999 158.271ZM15.2294 158.131C15.0725 158.131 14.9156 158.075 14.7825 157.962C14.4758 157.696 14.4259 157.213 14.6731 156.884C15.2865 156.063 15.9213 155.245 16.5584 154.456C16.8175 154.136 17.2669 154.101 17.564 154.379C17.8612 154.655 17.8945 155.141 17.6354 155.46C17.0101 156.235 16.3872 157.037 15.7858 157.842C15.6455 158.031 15.4387 158.128 15.2294 158.128V158.131ZM176.281 158.11C176.094 158.11 175.908 158.031 175.768 157.875C175.086 157.114 174.417 156.324 173.778 155.532C173.521 155.212 173.552 154.727 173.849 154.451C174.146 154.175 174.598 154.208 174.855 154.527C175.478 155.302 176.132 156.071 176.795 156.812C177.068 157.116 177.059 157.602 176.776 157.896C176.638 158.039 176.46 158.11 176.281 158.11ZM287.127 154.969C286.859 154.969 286.604 154.806 286.481 154.53C286.312 154.147 286.466 153.689 286.823 153.51C287.7 153.066 288.578 152.618 289.453 152.168C289.809 151.984 290.235 152.148 290.403 152.529C290.572 152.91 290.422 153.37 290.068 153.551C289.191 154.003 288.311 154.451 287.432 154.898C287.334 154.946 287.23 154.972 287.127 154.972V154.969ZM203.821 152.363C203.712 152.363 203.602 152.337 203.498 152.278C203.146 152.087 203.006 151.627 203.184 151.248C203.617 150.331 204.037 149.393 204.432 148.455C204.594 148.069 205.017 147.898 205.376 148.074C205.735 148.248 205.894 148.703 205.73 149.089C205.326 150.047 204.896 151.008 204.453 151.944C204.327 152.209 204.078 152.363 203.816 152.363H203.821ZM107.577 150.742C107.406 150.742 107.235 150.676 107.099 150.543C106.36 149.822 105.63 149.127 104.929 148.473C104.631 148.194 104.601 147.711 104.857 147.392C105.116 147.073 105.566 147.039 105.863 147.315C106.569 147.975 107.308 148.677 108.055 149.406C108.347 149.689 108.369 150.175 108.105 150.489C107.965 150.656 107.77 150.742 107.575 150.742H107.577ZM296.311 150.188C296.05 150.188 295.798 150.032 295.672 149.764C295.496 149.385 295.641 148.925 295.993 148.736C296.86 148.271 297.728 147.803 298.594 147.333C298.945 147.142 299.373 147.292 299.552 147.671C299.73 148.049 299.587 148.509 299.238 148.7C298.37 149.173 297.5 149.641 296.627 150.109C296.525 150.162 296.416 150.19 296.311 150.19V150.188ZM22.1358 150.075C21.9456 150.075 21.7554 149.994 21.6151 149.835C21.3441 149.526 21.3584 149.04 21.646 148.752C22.3616 148.028 23.0962 147.315 23.8332 146.633C24.1304 146.357 24.5821 146.393 24.8389 146.712C25.0956 147.032 25.0624 147.517 24.7652 147.793C24.0448 148.46 23.3245 149.16 22.6231 149.868C22.4853 150.006 22.3093 150.075 22.1334 150.075H22.1358ZM169.927 149.549C169.694 149.549 169.465 149.426 169.33 149.201C168.79 148.315 168.27 147.405 167.782 146.495C167.585 146.127 167.701 145.659 168.044 145.447C168.384 145.235 168.821 145.363 169.018 145.728C169.494 146.612 170 147.499 170.523 148.361C170.74 148.716 170.647 149.191 170.316 149.421C170.195 149.505 170.06 149.546 169.927 149.546V149.549ZM305.393 145.194C305.136 145.194 304.889 145.046 304.761 144.783C304.578 144.407 304.711 143.944 305.06 143.748C305.918 143.262 306.777 142.774 307.632 142.283C307.982 142.084 308.412 142.227 308.598 142.6C308.783 142.973 308.652 143.438 308.303 143.638C307.445 144.131 306.584 144.619 305.723 145.105C305.619 145.163 305.505 145.192 305.393 145.192V145.194ZM99.7411 143.727C99.5913 143.727 99.4416 143.676 99.3132 143.574C98.531 142.943 97.7417 142.332 96.9714 141.757C96.6481 141.517 96.5673 141.039 96.7931 140.691C97.0166 140.343 97.4612 140.257 97.7845 140.499C98.5691 141.085 99.3702 141.708 100.169 142.35C100.485 142.603 100.547 143.086 100.312 143.423C100.171 143.625 99.9575 143.73 99.7411 143.73V143.727ZM30.0668 143.198C29.8385 143.198 29.6151 143.081 29.4772 142.866C29.2537 142.516 29.3369 142.04 29.6626 141.8C30.4733 141.205 31.303 140.622 32.1303 140.07C32.4656 139.848 32.9054 139.958 33.1122 140.318C33.319 140.678 33.2168 141.151 32.8816 141.373C32.0733 141.913 31.2602 142.48 30.4686 143.065C30.3449 143.157 30.2047 143.201 30.0668 143.201V143.198ZM207.73 142.24C207.656 142.24 207.58 142.227 207.506 142.201C207.133 142.069 206.928 141.637 207.052 141.233C207.352 140.257 207.634 139.26 207.894 138.268C208.001 137.862 208.393 137.624 208.773 137.739C209.151 137.854 209.372 138.279 209.265 138.685C208.999 139.697 208.711 140.717 208.405 141.713C208.305 142.035 208.027 142.24 207.727 142.24H207.73ZM314.375 139.988C314.123 139.988 313.88 139.845 313.749 139.592C313.559 139.222 313.683 138.754 314.028 138.549C314.876 138.043 315.723 137.537 316.569 137.026C316.911 136.817 317.346 136.95 317.539 137.32C317.732 137.691 317.61 138.156 317.266 138.363C316.417 138.874 315.568 139.385 314.717 139.891C314.608 139.955 314.489 139.988 314.372 139.988H314.375ZM165.219 139.837C164.936 139.837 164.668 139.656 164.556 139.354C164.19 138.373 163.848 137.371 163.536 136.372C163.41 135.971 163.612 135.536 163.985 135.401C164.361 135.265 164.763 135.483 164.889 135.884C165.193 136.855 165.526 137.831 165.883 138.785C166.03 139.178 165.852 139.625 165.486 139.781C165.398 139.82 165.31 139.837 165.222 139.837H165.219ZM91.1254 137.882C91.0184 137.882 90.9115 137.857 90.8092 137.803C89.9629 137.353 89.0832 136.919 88.1965 136.515C87.8327 136.349 87.6639 135.899 87.8185 135.511C87.973 135.122 88.3914 134.938 88.7528 135.104C89.6657 135.521 90.5691 135.966 91.4392 136.431C91.7935 136.617 91.9361 137.077 91.7626 137.458C91.6389 137.729 91.3846 137.885 91.1231 137.885L91.1254 137.882ZM38.9131 137.765C38.6444 137.765 38.3877 137.601 38.2664 137.323C38.1 136.939 38.2545 136.482 38.6111 136.303C39.4979 135.858 40.4061 135.432 41.3119 135.033C41.6756 134.872 42.094 135.061 42.2414 135.452C42.3888 135.843 42.2153 136.293 41.8515 136.451C40.9671 136.84 40.0804 137.259 39.2126 137.693C39.1151 137.742 39.0129 137.765 38.9107 137.765H38.9131ZM323.247 134.573C323.002 134.573 322.762 134.437 322.631 134.192C322.434 133.827 322.548 133.356 322.888 133.144C323.727 132.62 324.564 132.091 325.399 131.562C325.739 131.348 326.176 131.468 326.376 131.833C326.576 132.199 326.464 132.669 326.124 132.884C325.287 133.415 324.448 133.944 323.606 134.471C323.492 134.542 323.368 134.575 323.247 134.575V134.573ZM81.5992 134C81.535 134 81.4708 133.99 81.4066 133.972C80.489 133.699 79.5499 133.443 78.6132 133.216C78.2281 133.121 77.9879 132.712 78.0759 132.298C78.1639 131.884 78.5443 131.626 78.9294 131.721C79.8875 131.953 80.8503 132.214 81.7894 132.495C82.1698 132.608 82.3909 133.032 82.2863 133.438C82.1983 133.778 81.9106 134 81.5992 134ZM48.4726 133.98C48.1588 133.98 47.8735 133.758 47.7855 133.418C47.6809 133.009 47.9044 132.587 48.2824 132.475C49.2238 132.196 50.1843 131.935 51.1424 131.705C51.5251 131.613 51.9079 131.872 51.9959 132.286C52.0815 132.7 51.8413 133.108 51.4562 133.203C50.5219 133.43 49.5804 133.683 48.6628 133.954C48.5986 133.972 48.5344 133.982 48.4726 133.982V133.98ZM71.5832 131.964C71.5571 131.964 71.5333 131.964 71.5072 131.958C70.5562 131.851 69.591 131.767 68.6353 131.705C68.243 131.68 67.9411 131.317 67.9648 130.895C67.9886 130.474 68.3262 130.154 68.7185 130.175C69.6956 130.236 70.6846 130.323 71.6569 130.433C72.0492 130.476 72.3321 130.854 72.2917 131.276C72.2537 131.67 71.9446 131.964 71.5832 131.964ZM58.4862 131.953C58.1248 131.953 57.8157 131.659 57.7777 131.266C57.7373 130.844 58.0226 130.468 58.4125 130.425C59.3872 130.315 60.3738 130.231 61.3509 130.169C61.7432 130.149 62.0808 130.468 62.1046 130.89C62.1283 131.312 61.8264 131.675 61.4341 131.7C60.4808 131.759 59.5132 131.843 58.5622 131.948C58.5361 131.951 58.5123 131.953 58.4885 131.953H58.4862ZM210.178 131.603C210.138 131.603 210.1 131.601 210.059 131.593C209.672 131.521 209.41 131.125 209.475 130.709C209.634 129.694 209.776 128.664 209.895 127.642C209.945 127.223 210.302 126.926 210.692 126.977C211.082 127.031 211.36 127.414 211.31 127.834C211.189 128.876 211.044 129.932 210.88 130.967C210.82 131.34 210.518 131.606 210.178 131.606V131.603ZM162.369 129.324C162.034 129.324 161.734 129.068 161.67 128.7C161.487 127.665 161.328 126.609 161.197 125.567C161.144 125.148 161.418 124.762 161.808 124.705C162.2 124.652 162.557 124.943 162.609 125.362C162.735 126.379 162.889 127.407 163.068 128.414C163.141 128.83 162.887 129.232 162.5 129.311C162.454 129.321 162.409 129.324 162.366 129.324H162.369ZM332.006 128.948C331.765 128.948 331.53 128.818 331.397 128.582C331.19 128.222 331.297 127.749 331.632 127.529C332.46 126.985 333.285 126.438 334.109 125.889C334.445 125.666 334.885 125.776 335.091 126.137C335.298 126.497 335.196 126.97 334.861 127.192C334.033 127.744 333.206 128.294 332.376 128.838C332.26 128.915 332.132 128.95 332.006 128.95V128.948ZM340.65 123.121C340.414 123.121 340.186 122.996 340.048 122.768C339.834 122.413 339.932 121.938 340.262 121.708C341.078 121.143 341.893 120.578 342.706 120.008C343.037 119.778 343.479 119.878 343.693 120.233C343.907 120.588 343.814 121.064 343.484 121.294C342.668 121.864 341.85 122.434 341.032 122.998C340.914 123.08 340.78 123.121 340.647 123.121H340.65ZM211.12 120.693C211.12 120.693 211.11 120.693 211.108 120.693C210.713 120.685 210.399 120.338 210.407 119.914C210.414 119.512 210.416 119.109 210.416 118.707C210.416 118.079 210.409 117.442 210.392 116.814C210.383 116.389 210.692 116.037 211.086 116.027C211.486 116.009 211.807 116.349 211.819 116.773C211.835 117.414 211.842 118.063 211.842 118.707C211.842 119.119 211.84 119.53 211.833 119.942C211.826 120.361 211.507 120.696 211.12 120.696V120.693ZM161.42 118.419C161.026 118.419 160.707 118.076 160.707 117.652C160.707 116.599 160.733 115.531 160.785 114.478C160.807 114.054 161.149 113.732 161.537 113.752C161.929 113.775 162.231 114.135 162.212 114.56C162.162 115.584 162.136 116.625 162.136 117.652C162.136 118.076 161.817 118.419 161.423 118.419H161.42ZM349.17 117.087C348.942 117.087 348.716 116.97 348.578 116.75C348.357 116.4 348.445 115.922 348.771 115.684C349.574 115.101 350.378 114.516 351.179 113.926C351.505 113.688 351.949 113.778 352.171 114.125C352.394 114.475 352.308 114.951 351.985 115.191C351.182 115.781 350.378 116.369 349.57 116.954C349.448 117.044 349.308 117.085 349.173 117.085L349.17 117.087ZM357.565 110.854C357.341 110.854 357.12 110.741 356.982 110.529C356.754 110.184 356.83 109.704 357.154 109.461C357.945 108.858 358.737 108.255 359.524 107.647C359.845 107.401 360.289 107.478 360.52 107.823C360.751 108.168 360.677 108.646 360.356 108.894C359.564 109.502 358.773 110.11 357.979 110.713C357.853 110.808 357.71 110.854 357.567 110.854H357.565ZM210.509 109.755C210.159 109.755 209.853 109.476 209.803 109.093C209.67 108.071 209.515 107.041 209.344 106.034C209.272 105.617 209.529 105.219 209.917 105.139C210.302 105.063 210.675 105.336 210.749 105.755C210.925 106.785 211.084 107.836 211.22 108.883C211.274 109.303 211.001 109.691 210.611 109.747C210.578 109.752 210.544 109.755 210.511 109.755H210.509ZM162.374 107.514C162.328 107.514 162.286 107.509 162.24 107.501C161.853 107.422 161.599 107.02 161.672 106.604C161.855 105.566 162.067 104.524 162.3 103.501C162.395 103.09 162.78 102.837 163.163 102.939C163.546 103.041 163.779 103.455 163.686 103.867C163.458 104.861 163.253 105.878 163.075 106.888C163.011 107.256 162.711 107.511 162.376 107.511L162.374 107.514ZM208.312 99.0544C208.008 99.0544 207.725 98.8423 207.63 98.5126C207.347 97.5262 207.04 96.5371 206.719 95.5737C206.586 95.175 206.779 94.7354 207.149 94.5923C207.52 94.4492 207.929 94.6562 208.062 95.0549C208.393 96.0388 208.707 97.0508 208.994 98.0628C209.111 98.4666 208.899 98.896 208.521 99.0212C208.452 99.0442 208.381 99.0544 208.312 99.0544ZM165.212 96.9971C165.124 96.9971 165.034 96.9793 164.948 96.9435C164.582 96.7876 164.404 96.3403 164.549 95.9468C164.913 94.9654 165.305 93.984 165.719 93.0308C165.885 92.6474 166.308 92.4813 166.667 92.6577C167.024 92.8365 167.178 93.2915 167.014 93.6774C166.612 94.6051 166.23 95.5609 165.875 96.5141C165.764 96.8131 165.495 96.9971 165.212 96.9971ZM204.47 88.9111C204.216 88.9111 203.971 88.7654 203.842 88.5098C203.381 87.5924 202.892 86.7004 202.388 85.8647C202.174 85.5095 202.266 85.0342 202.597 84.8041C202.927 84.5741 203.369 84.6738 203.583 85.029C204.109 85.9005 204.618 86.8257 205.098 87.7789C205.286 88.152 205.155 88.6172 204.81 88.8191C204.703 88.883 204.587 88.9111 204.473 88.9111H204.47ZM169.938 87.301C169.798 87.301 169.658 87.2576 169.532 87.1656C169.209 86.9253 169.128 86.4474 169.351 86.0999C169.919 85.2182 170.523 84.3595 171.144 83.5493C171.393 83.2222 171.843 83.1762 172.147 83.4445C172.451 83.7129 172.494 84.1959 172.245 84.523C171.648 85.2999 171.068 86.1254 170.523 86.9713C170.385 87.186 170.162 87.301 169.936 87.301H169.938ZM198.308 80.2347C198.139 80.2347 197.97 80.1708 197.832 80.0404C197.114 79.353 196.368 78.7319 195.612 78.1952C195.284 77.9627 195.191 77.4873 195.41 77.1321C195.626 76.7794 196.068 76.6797 196.399 76.9149C197.212 77.4924 198.016 78.1595 198.786 78.898C199.081 79.1792 199.104 79.6647 198.843 79.9816C198.703 80.1503 198.508 80.2372 198.31 80.2372L198.308 80.2347ZM176.961 79.4066C176.74 79.4066 176.524 79.2967 176.384 79.0897C176.153 78.7473 176.222 78.2668 176.543 78.0189C177.375 77.3698 178.228 76.7896 179.084 76.2913C179.431 76.0894 179.864 76.2274 180.052 76.6005C180.24 76.9736 180.111 77.4388 179.764 77.6407C178.963 78.1058 178.162 78.6527 177.382 79.261C177.256 79.3606 177.109 79.4066 176.964 79.4066H176.961ZM189.252 75.5731C189.222 75.5731 189.193 75.5731 189.162 75.568C189.093 75.5578 189.027 75.5501 188.958 75.5425C188.107 75.4403 187.244 75.4198 186.392 75.4837C185.998 75.5093 185.66 75.1949 185.632 74.7707C185.606 74.349 185.9 73.9835 186.295 73.9529C187.232 73.8839 188.183 73.9043 189.117 74.0168C189.193 74.027 189.267 74.0346 189.343 74.0449C189.733 74.0985 190.011 74.4819 189.961 74.901C189.916 75.2895 189.609 75.5706 189.255 75.5706L189.252 75.5731Z" fill="#1283D3"/>
<path d="M406.018 199.315C426.501 199.315 443.106 196.752 443.106 193.591C443.106 190.429 426.501 187.866 406.018 187.866C385.536 187.866 368.931 190.429 368.931 193.591C368.931 196.752 385.536 199.315 406.018 199.315Z" fill="#DDDDDD"/>
</g>
<defs>
<clipPath id="clip0_4023_2356">
<rect width="465.649" height="199.315" fill="white"/>
</clipPath>
</defs>
</svg>
