<svg width="470" height="354" viewBox="0 0 470 354" fill="none" xmlns="http://www.w3.org/2000/svg">
<g clip-path="url(#clip0_4023_2371)">
<path d="M6.40464 225.964C4.68384 219.694 3.31562 213.335 2.3105 206.913C-6.1567 151.997 9.02006 90.2018 41.9258 45.4083C59.4443 21.5531 78.8679 5.74427 108.695 1.2192C121.383 -0.704354 134.407 -0.205071 147.063 1.68694C178.796 6.4275 205.86 19.2196 231.535 38.124C239.571 33.9826 247.159 28.6009 254.827 23.8025C277.739 9.45998 299.978 -0.14726 327.637 3.20581C363.532 7.55745 401.516 24.0705 424.197 53.0552C445.089 79.7484 446.115 109.322 442.61 141.649C442.168 145.743 441.41 149.79 440.905 153.873L440.931 154.194C445.194 159.497 448.704 167.149 451.64 173.245C464.581 200.096 472.548 229.16 469.259 259.138C469.154 260.1 469.043 261.056 468.917 262.013L468.796 269.407C470.822 281.038 465.744 303.358 460.865 314.195C462.018 314.237 463.228 314.201 464.365 314.395L464.349 322.42C462.249 322.468 460.139 322.562 458.039 322.541V353.365L193.325 353.381L47.3987 353.355C46.7199 349.934 47.2093 344.462 47.2198 340.889C44.215 338.45 41.0733 336.206 38.1632 333.652C28.3383 324.969 20.1237 314.621 13.9036 303.085C4.1576 285.127 -0.994287 264.782 1.98423 244.375C2.90515 238.073 4.59964 232.066 6.40464 225.964Z" fill="#DDEAF9"/>
<path d="M297.546 88.4513C298.494 86.2335 299.109 83.9052 300.488 81.8923C301.251 81.5665 301.456 81.7662 302.235 82.008C307.319 83.5111 312.318 85.1298 317.322 86.8694C318.222 87.2636 319.143 87.642 320.022 88.0887L319.506 91.3945C329.936 91.4365 340.456 91.2788 350.844 92.2774C378.524 94.942 399.689 106.841 419.118 126.365C426.407 133.692 435.779 145.07 440.91 153.868L440.936 154.188C445.199 159.491 448.709 167.143 451.645 173.24C464.585 200.091 472.553 229.154 469.264 259.132C469.158 260.094 469.048 261.05 468.922 262.007L468.8 269.402C470.827 281.032 465.748 303.353 460.87 314.19C462.023 314.232 463.233 314.195 464.37 314.39L464.354 322.415C462.254 322.462 460.144 322.557 458.044 322.536V353.36L193.33 353.376L47.4035 353.349C47.8192 350.453 47.5614 347.227 47.5614 344.299L47.5298 326.635L47.4772 323.082C47.4351 322.898 47.2772 322.756 47.1667 322.599C45.0617 322.199 42.6147 322.446 40.4624 322.457V314.416L46.5984 314.369C51.0188 314.584 55.555 314.374 59.9806 314.369C66.7639 314.363 73.5734 314.474 80.3514 314.232C86.2505 314.39 92.1549 314.374 98.0541 314.179C107.369 314.29 116.688 314.295 126.003 314.2L148.405 314.211L154.488 314.148C169.512 314.2 184.642 314.568 199.655 314.158L199.676 313.99C199.666 311.793 199.713 309.596 199.818 307.4C205.728 307.279 211.669 307.41 217.584 307.421L217.61 298.544C217.574 292.143 217.368 285.736 216.995 279.345L216.979 278.93C217.037 276.276 216.721 273.522 216.558 270.868C216.184 265.155 215.763 259.448 215.295 253.74C213.785 234.757 211.99 215.537 206.502 197.221C203.439 187.01 199.313 177.26 195.019 167.522C196.808 166.849 199.634 166.534 201.544 166.292C208.264 174.454 217.611 181.581 228.477 182.826C229.667 182.963 230.924 182.863 231.882 182.075C232.95 181.202 233.182 180.156 233.261 178.842C233.503 174.98 233.145 171.017 233.324 167.112L233.408 165.031C233.387 162.992 233.445 160.963 233.524 158.929C238.365 158.466 242.891 157.873 246.696 154.556C251.884 150.036 253.474 142.221 254 135.704C259.668 135.988 270.776 136.219 275.981 137.749C276.976 136.708 277.697 135.668 278.339 134.391C280.943 129.23 282.869 123.585 285.085 118.235L297.541 88.4671L297.546 88.4513Z" fill="#BEDCFA"/>
<path d="M297.546 88.4513C298.494 86.2335 299.109 83.9052 300.488 81.8923C301.251 81.5665 301.456 81.7662 302.235 82.008C307.319 83.5111 312.318 85.1298 317.322 86.8694C318.222 87.2636 319.143 87.642 320.022 88.0887L319.506 91.3945C316.607 109.495 313.076 127.989 306.529 145.175C310.692 146.489 314.807 148.575 318.717 150.52C344.461 163.354 367.605 185.738 380.919 211.264C383.555 216.32 385.849 221.476 387.549 226.931L336.167 226.957L323.169 226.91C321.054 226.9 318.591 226.689 316.533 227.078C315.065 229.517 314.002 232.297 312.828 234.893L306.24 249.499L289.069 286.971C285.943 293.814 283.006 300.846 279.649 307.563C275.413 307.563 271.129 307.704 266.898 307.542C260.546 307.352 254.174 307.689 247.833 307.394C237.902 307.053 227.83 307.431 217.889 307.478C217.932 304.651 218.279 301.256 217.626 298.523C217.59 292.122 217.384 285.715 217.011 279.324L216.995 278.909C217.053 276.255 216.737 273.501 216.574 270.847C216.2 265.134 215.779 259.426 215.311 253.719C213.801 234.736 212.006 215.516 206.517 197.2C203.455 186.989 199.329 177.239 195.035 167.501C196.824 166.828 199.65 166.513 201.56 166.271C208.28 174.433 217.626 181.56 228.493 182.805C229.683 182.942 230.94 182.842 231.898 182.054C232.966 181.181 233.198 180.135 233.277 178.821C233.519 174.958 233.161 170.996 233.34 167.091L233.424 165.01C233.403 162.97 233.461 160.942 233.54 158.908C238.381 158.445 242.907 157.852 246.712 154.535C251.9 150.015 253.49 142.2 254.016 135.683C259.683 135.967 270.792 136.198 275.997 137.728C276.991 136.687 277.712 135.647 278.354 134.369C280.959 129.208 282.885 123.564 285.101 118.214L297.557 88.4461L297.546 88.4513Z" fill="#243B7A"/>
<path d="M264.177 208.006C267.803 204.075 271.071 199.639 274.35 195.408C285.132 181.486 300.051 161.215 306.524 145.18C310.686 146.494 314.802 148.581 318.712 150.525C344.455 163.36 367.599 185.743 380.913 211.27C383.55 216.326 385.844 221.481 387.544 226.937L336.162 226.963L323.164 226.916C321.048 226.905 318.585 226.695 316.528 227.084C315.059 229.522 313.996 232.303 312.823 234.899L306.234 249.504L289.063 286.977C285.937 293.819 283.001 300.851 279.644 307.568C275.407 307.568 271.124 307.71 266.893 307.547C265.761 292.632 264.73 277.769 264.446 262.811C264.13 246.156 264.561 229.507 263.856 212.857C263.683 208.794 263.051 204.579 262.546 200.543C262.351 198.993 261.83 197.242 261.851 195.708C261.862 195.219 261.957 194.935 262.162 194.51C263.062 195.545 263.956 205.977 264.183 208.016L264.177 208.006Z" fill="#97C2FA"/>
<path d="M195.019 167.511C196.808 166.839 199.634 166.523 201.544 166.281C208.264 174.443 217.61 181.57 228.477 182.816C229.667 182.952 230.924 182.852 231.882 182.064C232.95 181.192 233.182 180.146 233.261 178.832C233.503 174.969 233.145 171.006 233.324 167.101C234.019 167.385 234.413 167.601 234.966 168.131C240.875 184.907 242.854 203.228 244.517 220.85C246.985 249.635 248.085 278.515 247.811 307.4C237.881 307.058 227.809 307.436 217.868 307.484C217.91 304.656 218.258 301.261 217.605 298.528C217.568 292.127 217.363 285.72 216.989 279.329L216.974 278.914C217.032 276.26 216.716 273.506 216.553 270.852C216.179 265.139 215.758 259.432 215.29 253.724C213.779 234.741 211.985 215.521 206.496 197.205C203.433 186.994 199.308 177.245 195.014 167.506L195.019 167.511Z" fill="#FEFEFD"/>
<path d="M254.005 135.694C259.673 135.978 270.782 136.209 275.986 137.738C264.951 148.822 253.979 159.933 242.365 170.423L240.202 169.487L238.639 168.967C237.371 168.731 236.297 168.179 234.966 168.142C234.413 167.611 234.019 167.396 233.324 167.112L233.408 165.031C233.387 162.992 233.445 160.963 233.524 158.929C238.365 158.466 242.891 157.873 246.696 154.556C251.884 150.036 253.474 142.221 254 135.704L254.005 135.694Z" fill="#97C2FA"/>
<path d="M238.644 168.962L240.207 169.482C243.844 176.152 247.506 183.01 250.332 190.063C252.279 194.231 256.673 202.703 257.615 206.918C257.873 208.085 257.821 209.236 257.436 210.371C256.095 214.302 251.464 219.957 249.38 224.424C251.748 229.044 255.852 234.152 257.331 239.003L256.421 239.424C254.058 234.284 250.595 229.69 248.296 224.503C250.148 218.738 254.816 214.407 256.984 208.857C255.389 202.813 252.19 196.974 249.68 191.251C246.196 183.793 242.796 176.078 238.644 168.962Z" fill="#7B88AD"/>
<path d="M256.421 239.424L257.331 239.003C258.589 245.021 251.374 270.5 248.527 277.374L248.148 277.585C247.927 276.986 248.027 276.449 248.164 275.84C248.575 273.974 249.422 272.061 249.953 270.201C251.685 264.115 257.084 245.053 256.426 239.429L256.421 239.424Z" fill="#7B88AD"/>
<path d="M199.676 313.98C202.681 314.784 219.226 314.253 223.489 314.248L283.485 314.237L405.32 314.29L443.262 314.248C450.261 314.285 457.381 314.653 464.364 314.384L464.349 322.41C462.249 322.457 460.139 322.552 458.039 322.531V353.355L193.325 353.371L47.3984 353.344C47.8141 350.448 47.5563 347.221 47.5563 344.294L47.5247 326.63L47.4721 323.077C47.43 322.893 47.2721 322.751 47.1616 322.594C45.0566 322.194 42.6096 322.441 40.4573 322.452V314.411L46.5933 314.363C51.0137 314.579 55.5499 314.369 59.9755 314.363C66.7588 314.358 73.5683 314.469 80.3463 314.227C86.2454 314.384 92.1498 314.369 98.049 314.174C107.363 314.285 116.683 314.29 125.998 314.195L148.4 314.206L154.483 314.143C169.507 314.195 184.636 314.563 199.65 314.153L199.671 313.985L199.676 313.98Z" fill="#5A6D99"/>
<path d="M457.787 322.499L458.039 322.536V353.36L193.325 353.376V326.746L457.771 326.777L457.787 322.51V322.499Z" fill="#7B88AD"/>
<path d="M199.676 313.98C202.681 314.784 219.226 314.253 223.489 314.248L283.485 314.237L405.32 314.29L443.262 314.248C450.261 314.284 457.381 314.652 464.364 314.384L464.348 322.41C462.249 322.457 460.139 322.552 458.039 322.531L457.786 322.494C455.502 322.147 452.866 322.383 450.54 322.383L436.321 322.404L384.713 322.378L199.608 322.32C199.671 319.593 199.766 316.865 199.65 314.137L199.671 313.969L199.676 313.98Z" fill="#9DA7C0"/>
<path d="M154.488 314.137C169.512 314.19 184.642 314.558 199.655 314.148C199.771 316.87 199.676 319.603 199.613 322.331H193.356L73.6944 322.347C71.2159 322.347 48.8138 322.052 48.0929 322.347C47.9245 322.415 47.7929 322.552 47.6456 322.646L47.4772 323.077C47.4351 322.893 47.2772 322.751 47.1667 322.594C45.0617 322.194 42.6147 322.441 40.4624 322.452V314.411L46.5984 314.364C51.0188 314.579 55.555 314.369 59.9806 314.364C66.7639 314.358 73.5734 314.469 80.3514 314.227C86.2505 314.385 92.1549 314.369 98.0541 314.174C107.369 314.285 116.688 314.29 126.003 314.195L148.405 314.206L154.488 314.143V314.137Z" fill="#7B88AD"/>
<path d="M47.4772 323.072L47.6456 322.641C47.7929 322.541 47.9245 322.41 48.0929 322.342C48.8139 322.052 71.2159 322.342 73.6945 322.342L193.356 322.326L193.314 326.746L47.5298 326.62L47.4772 323.067V323.072Z" fill="#243B7A"/>
<path d="M316.523 227.078C320.533 227.357 324.658 227.178 328.684 227.178L351.481 227.152L416.335 227.194L435.095 227.147C438.242 227.136 441.531 226.91 444.657 227.189C445.572 227.273 446.057 227.304 446.646 228.051C446.962 228.455 447.23 228.897 447.509 229.322L448.151 229.612C448.151 230.263 448.246 229.979 447.972 230.416C446.114 233.369 444.699 236.738 443.152 239.87L434.953 256.184L405.32 314.284L283.485 314.232L223.489 314.242C219.226 314.248 202.681 314.778 199.676 313.974C199.666 311.778 199.713 309.581 199.818 307.384C205.728 307.263 211.669 307.394 217.584 307.405L217.611 298.528C218.263 301.266 217.916 304.656 217.874 307.484C227.82 307.436 237.887 307.058 247.817 307.4C254.158 307.689 260.531 307.358 266.882 307.547C271.113 307.704 275.397 307.568 279.633 307.568C282.996 300.846 285.927 293.814 289.053 286.976L306.224 249.504L312.813 234.899C313.986 232.308 315.044 229.522 316.517 227.084L316.523 227.078Z" fill="#FEFEFD"/>
<path d="M316.523 227.078C320.533 227.357 324.658 227.178 328.684 227.178L351.481 227.152L416.334 227.194L435.095 227.147C438.242 227.136 441.531 226.91 444.657 227.189C445.572 227.273 446.056 227.304 446.646 228.051C446.962 228.455 447.23 228.897 447.509 229.322C435.921 229.512 323.406 229.207 322.664 229.522C322.511 229.585 322.38 229.706 322.243 229.806C322.232 229.816 322.227 229.832 322.216 229.848C319.554 235.251 317.18 240.811 314.697 246.298L301.651 274.946L291.263 297.572C289.348 301.724 287.285 305.87 285.585 310.117C284.754 311.441 284.248 312.881 283.485 314.232L223.489 314.242C219.226 314.248 202.681 314.778 199.676 313.974C199.666 311.778 199.713 309.581 199.818 307.384C205.728 307.263 211.669 307.394 217.584 307.405L217.611 298.528C218.263 301.266 217.916 304.656 217.874 307.484C227.82 307.436 237.887 307.058 247.817 307.4C254.158 307.689 260.531 307.358 266.882 307.547C271.113 307.704 275.397 307.568 279.633 307.568C282.996 300.846 285.927 293.814 289.053 286.976L306.224 249.504L312.813 234.899C313.986 232.308 315.044 229.522 316.517 227.084L316.523 227.078Z" fill="#DDEAF9"/>
<path d="M368.278 268.566C372.415 268.246 377.446 268.388 380.961 270.873C382.271 271.804 383.339 273.118 383.55 274.747C383.734 276.166 383.171 277.559 382.282 278.641C379.508 282.01 374.12 283.219 369.973 283.545C366.142 284.012 361.043 283.597 357.722 281.479C356.37 280.617 355.18 279.309 354.865 277.69C354.58 276.255 355.033 274.878 355.901 273.727C358.59 270.169 364.1 269.029 368.278 268.556V268.566Z" fill="#DDEAF9"/>
<path d="M440.931 154.188C445.194 159.491 448.704 167.144 451.64 173.24C464.58 200.091 472.547 229.154 469.258 259.132C469.153 260.094 469.043 261.051 468.916 262.007C468.774 258.554 467.38 254.465 466.464 251.112C463.428 239.949 458.713 229.438 453.361 219.205C447.541 208.074 439.142 197.784 437.663 184.923C436.505 174.864 438.942 164.053 440.931 154.188Z" fill="#DDEAF9"/>
<path d="M460.87 314.19C460.218 314.148 459.797 314.232 459.255 313.843C459.544 311.662 460.26 309.46 460.807 307.326C461.991 302.722 463.259 298.113 464.254 293.472C465.391 288.196 466.269 282.824 467.19 277.511C467.653 274.852 467.901 271.951 468.795 269.407C470.821 281.038 465.743 303.358 460.865 314.195L460.87 314.19Z" fill="#DDEAF9"/>
<path d="M352.117 115.617C355.385 115.444 379.024 115.034 380.682 116.443C382.481 117.972 382.176 124.463 381.976 126.733C381.813 128.552 381.124 129.303 379.745 130.417C379.703 130.417 379.661 130.428 379.619 130.433C377.366 130.748 375.135 130.691 372.867 130.67C368.804 130.685 364.737 130.654 360.674 130.585C358.527 132.877 356.259 135.074 354.049 137.302C354.228 135.089 354.359 132.887 354.412 130.664C354.222 130.638 354.038 130.606 353.849 130.585C351.928 130.349 351.207 130.039 349.781 128.693C349.17 125.75 348.749 120.595 349.77 117.799C350.218 116.574 350.965 116.112 352.117 115.623V115.617Z" fill="#FEFEFD"/>
<path d="M99.7224 56.2557L100.08 55.9088C100.512 55.4831 100.938 55.0206 101.464 54.7158C102.596 54.0536 103.695 54.2638 104.911 54.5371C107.721 56.55 110.663 59.9083 111.215 63.4243C111.284 63.8711 111.305 64.3283 111.336 64.7803C113.32 69.8624 110.858 76.5686 109.537 81.5667C110.031 82.9804 110.416 84.6307 111.536 85.6765L112.305 85.5819C114.078 87.2637 115.688 91.6837 116.836 94.0382C121.277 103.088 125.598 112.196 129.797 121.362C131.849 125.771 135.538 135.158 138.385 138.6C140.611 141.286 143.937 143.598 146.642 145.79C153.009 150.956 159.524 156.191 166.213 160.926C169.654 163.643 173.128 166.329 176.617 168.983C181 168.505 185.378 167.99 189.751 167.433C190.078 167.296 190.567 167.338 190.925 167.322C192.156 167.207 193.477 166.954 194.698 167.233L195.024 167.511C199.318 177.25 203.444 186.999 206.507 197.211C212.001 215.527 213.79 234.746 215.3 253.73C215.763 259.437 216.184 265.145 216.563 270.858C216.732 273.506 217.042 276.26 216.984 278.92L217 279.335C217.369 285.726 217.579 292.132 217.616 298.534L217.59 307.41C211.675 307.4 205.733 307.268 199.824 307.389C199.718 309.586 199.671 311.783 199.682 313.98L199.661 314.148C184.652 314.563 169.523 314.19 154.493 314.137L148.41 314.201L126.008 314.19C116.694 314.285 107.374 314.279 98.0595 314.169C92.1603 314.363 86.2559 314.379 80.3567 314.222C73.5788 314.463 66.7692 314.353 59.986 314.358C55.5551 314.358 51.0189 314.568 46.6037 314.358C47.9141 313.596 55.7971 314.106 57.8179 314.122C53.6711 310.627 50.1506 305.891 46.6353 301.766C27.1013 278.841 14.4663 255.07 6.40955 226.106C11.5088 209.372 20.3286 194.015 28.7958 178.816C33.4109 170.533 38.6838 161.998 41.4729 152.906C43.341 146.825 43.7463 140.598 44.1146 134.291C45.0513 118.298 45.4407 102.805 53.9711 88.6092C56.3655 84.6359 59.2124 80.957 62.4593 77.646C68.6216 71.2972 80.9672 61.8792 89.6659 59.7139C90.8605 59.1568 92.4971 59.2093 93.5285 58.6207C94.4915 58.0689 94.702 56.303 95.5703 55.9351C96.8333 55.4043 98.4804 55.9088 99.7382 56.2609L99.7224 56.2557Z" fill="#BEDCFA"/>
<path d="M111.536 85.6712L112.305 85.5766C114.078 87.2584 115.688 91.6784 116.836 94.0329C121.277 103.083 125.598 112.191 129.797 121.357C131.849 125.766 135.538 135.153 138.385 138.595C140.611 141.281 143.937 143.593 146.642 145.785C153.009 150.951 159.524 156.186 166.213 160.921C169.654 163.638 173.127 166.324 176.616 168.978C181 168.499 185.378 167.984 189.751 167.427C190.078 167.291 190.567 167.333 190.925 167.317C192.156 167.201 193.477 166.949 194.698 167.228L195.024 167.506C199.318 177.245 203.444 186.994 206.507 197.206C212.001 215.521 213.79 234.741 215.3 253.724C215.763 259.432 216.184 265.139 216.563 270.852C216.732 273.501 217.042 276.255 216.984 278.914L217 279.33C217.368 285.72 217.579 292.127 217.616 298.528L217.589 307.405C211.675 307.394 205.733 307.263 199.824 307.384C199.718 309.581 199.671 311.778 199.682 313.974L199.66 314.143C184.652 314.558 169.523 314.185 154.493 314.132C155.33 307.505 156.698 300.878 157.777 294.276C159.14 285.973 160.119 277.606 160.713 269.207C161.966 250.235 160.187 231.446 159.877 212.494L158.114 210.833C151.652 204.763 145.689 198.052 139.969 191.293C131.581 180.54 122.572 170.381 115.283 158.787C104.49 141.612 97.6489 112.906 93.7021 92.9029L95.6492 91.999C100.743 89.4973 106.253 87.7209 111.542 85.666L111.536 85.6712Z" fill="#243B7A"/>
<path d="M190.925 167.317C192.156 167.201 193.477 166.949 194.698 167.228L195.024 167.506C199.318 177.245 203.444 186.994 206.507 197.206C212.001 215.521 213.79 234.741 215.3 253.724C215.763 259.432 216.184 265.139 216.563 270.852C216.732 273.501 217.042 276.255 216.984 278.914C213.695 273.696 210.385 268.577 207.401 263.169C205.496 259.716 203.891 256.105 201.976 252.668C200.113 247.465 204.402 236.791 204.96 230.941C205.123 230.216 205.249 229.517 205.091 228.781C204.46 225.833 200.181 222.674 197.787 221.097C195.061 218.097 191.251 216.373 190.278 212.089C190.051 207.265 190.23 202.398 190.22 197.563C190.346 193.464 190.451 189.364 190.525 185.26C191.246 179.484 190.893 173.156 190.93 167.312L190.925 167.317Z" fill="#243B7A"/>
<path d="M201.971 252.673C203.891 256.11 205.491 259.721 207.396 263.174C210.38 268.582 213.69 273.701 216.979 278.92L216.995 279.335C216.895 279.314 216.79 279.308 216.695 279.272C213.448 278.1 202.639 257.109 200.981 253.141L201.971 252.678V252.673Z" fill="#7B88AD"/>
<path d="M190.272 212.095C191.246 216.373 195.056 218.102 197.782 221.103C200.176 222.674 204.455 225.838 205.086 228.786C205.244 229.522 205.123 230.221 204.955 230.946C204.912 230.195 204.991 229.123 204.528 228.503L204.076 228.702C202.502 226.227 199.987 224.818 198.056 222.7C197.977 222.648 197.892 222.595 197.813 222.543C194.603 220.33 190.141 216.709 189.325 212.778L190.272 212.105V212.095Z" fill="#7B88AD"/>
<path d="M204.076 228.697L204.528 228.497C204.991 229.117 204.913 230.19 204.955 230.941C204.397 236.791 200.108 247.465 201.971 252.668L200.982 253.13C198.703 246.771 203.823 235.766 204.071 228.692L204.076 228.697Z" fill="#7B88AD"/>
<path d="M189.752 167.428C190.078 167.291 190.567 167.333 190.925 167.317C190.888 173.161 191.241 179.494 190.52 185.265C190.399 184.414 190.304 183.552 190.12 182.716C189.941 183.21 189.825 183.704 189.699 184.214C189.62 181.402 190.557 168.899 189.746 167.422L189.752 167.428Z" fill="#7B88AD"/>
<path d="M189.325 212.773C188.888 207.869 188.788 202.214 189.304 197.3C189.604 197.405 189.899 197.537 190.209 197.574C190.22 202.409 190.041 207.275 190.267 212.1L189.32 212.773H189.325Z" fill="#7B88AD"/>
<path d="M189.699 184.219C189.825 183.709 189.936 183.215 190.12 182.721C190.304 183.562 190.399 184.424 190.52 185.27C190.446 189.37 190.341 193.474 190.215 197.574C189.904 197.537 189.604 197.4 189.309 197.3C189.394 192.943 189.53 188.581 189.704 184.219H189.699Z" fill="#9DA7C0"/>
<path d="M158.108 210.844L159.871 212.505C160.182 231.451 161.961 250.245 160.708 269.218C160.113 277.611 159.135 285.978 157.772 294.287C156.693 300.883 155.325 307.515 154.488 314.143L148.405 314.206L126.003 314.195C126.039 307.452 126.024 300.709 125.96 293.972C126.139 288.853 125.939 283.692 125.903 278.573L125.818 253.603C125.808 246.24 125.555 238.656 126.855 231.388C127.771 226.248 129.492 220.53 133.217 216.677C138.043 211.69 146.394 211.191 152.888 211.149C154.625 210.991 156.424 211.38 158.114 210.849L158.108 210.844Z" fill="#2889FB"/>
<path d="M90.4079 278.2L110.994 278.147C110.294 283.592 109.563 289.037 108.8 294.476C108.247 298.46 107.963 302.828 106.606 306.627C105.958 308.441 105.111 309.933 103.585 311.147C101.88 312.503 99.8329 313.008 98.0542 314.169C92.155 314.364 86.2506 314.379 80.3515 314.222C79.0096 312.976 76.6046 312.429 75.0259 311.247C73.8524 310.369 72.8841 309.208 72.3263 307.852C70.6792 303.858 70.516 299.128 69.9688 294.886C69.2268 289.315 68.5163 283.739 67.8427 278.163C74.5155 278.047 81.2461 278.468 87.9083 278.1L89.5975 278.373L90.0869 278.205H90.4132L90.4079 278.2Z" fill="#FEFEFD"/>
<path d="M87.8136 237.5C86.0296 237.416 84.1404 237.363 82.4512 236.749C77.2362 234.857 77.2941 229.68 75.3312 225.423C72.1474 218.512 63.6171 218.338 57.0812 218.081C54.8499 217.991 52.2872 218.054 50.2032 217.15C44.1831 214.554 47.5405 207.685 45.3145 202.939C43.2674 198.577 39.4101 195.25 37.6735 190.652C36.4526 187.425 35.8579 182.726 37.4104 179.541C38.0734 178.185 39.3206 176.84 40.8099 176.414C42.4307 175.952 44.0357 176.677 45.3776 177.544C49.9191 180.472 52.2398 184.939 54.6552 189.574C55.3867 190.983 56.1392 192.575 57.1443 193.805C58.1337 195.019 59.5019 195.734 60.8701 196.417C63.1224 196.112 65.4063 195.14 67.6955 195.324C76.4258 196.049 81.1988 215.253 83.5984 222.359C84.2667 224.345 84.9666 227.352 86.3349 228.934C86.9611 230.862 87.2295 232.912 87.5768 234.899C87.019 234.252 86.619 233.606 85.8086 233.285C86.1559 234.131 86.819 234.652 87.4715 235.267L87.8136 237.5Z" fill="#97C2FA"/>
<path d="M56.4074 200.864C57.4547 201.831 57.9967 203.281 59.2123 204.106C64.4431 207.649 71.6737 205.93 76.3625 210.77C79.0621 213.561 82.309 221.329 82.3247 225.176C79.5146 218.848 78.5937 211.822 71.3105 208.973C69.3477 208.206 67.1796 207.838 65.1325 207.344C62.8854 206.808 60.4437 206.124 58.5966 204.674C57.3336 203.686 56.5706 202.451 56.4127 200.858L56.4074 200.864Z" fill="#5A6D99"/>
<path d="M86.4086 221.649C86.4612 221.56 86.5243 221.471 86.5664 221.371C86.6927 221.055 86.7927 212.673 87.04 210.923C87.8452 205.147 91.6446 198.094 91.1605 192.554C90.9395 190.037 90.0817 187.514 89.3134 185.123C87.1558 178.422 84.8983 172.168 85.4613 165.01C85.6455 162.65 86.2296 160.096 88.5451 158.955C89.5081 158.477 90.4869 158.577 91.4657 158.955C94.0917 159.964 96.023 162.303 97.0649 164.852C98.5647 168.51 98.7278 173.434 98.2437 177.303C97.828 180.629 94.6758 190.042 96.2756 192.623C97.4491 192.108 98.1437 189.895 98.5963 188.723C99.5803 186.19 100.843 180.866 103.338 179.536C103.906 179.231 104.49 179.137 105.106 179.394C106.016 179.783 106.4 181.102 106.579 181.975C107.232 185.097 106.327 188.571 106.043 191.703C105.685 195.613 105.869 199.581 104.922 203.423C103.769 208.074 99.9698 212.699 97.4649 216.714C96.1177 218.874 94.9389 221.176 93.8496 223.484C92.1919 226.994 90.9658 233.091 89.2713 235.887C88.9503 234.615 88.9766 233.033 88.945 231.719C88.703 221.513 94.3653 213.235 95.6704 203.418L95.3125 203.144L95.6914 203.129V202.971L95.4494 202.829C94.5811 204.732 94.4337 207.112 93.8128 209.146C91.6183 216.331 88.945 222.259 88.1452 229.932C87.6873 227.157 87.0137 224.398 86.4086 221.649Z" fill="#97C2FA"/>
<path d="M75.1521 194.22C71.9052 190.568 69.2372 186.29 65.5377 183.068C62.1067 180.083 57.9336 178.044 54.5499 174.953C51.3082 171.989 49.0559 168.379 48.9138 163.864C48.8138 160.627 49.1559 157.352 49.198 154.11C49.2401 150.578 47.9719 140.382 50.5715 137.791C51.5555 136.808 52.7554 136.288 54.1604 136.325C57.7283 136.425 60.9331 138.863 63.2065 141.438C70.3265 149.49 63.317 152.391 63.2065 157.163C63.1328 160.427 68.8846 162.098 71.0212 164.243C75.6679 168.899 75.3889 175.584 75.5468 181.66C75.6468 185.076 75.7152 188.492 75.7521 191.903C73.3787 186.537 67.2533 173.293 63.3328 169.288C65.3115 174.254 68.1163 178.801 70.5949 183.525C72.2526 186.694 73.6313 190.032 75.0574 193.306L75.1521 194.22Z" fill="#97C2FA"/>
<path d="M99.7224 56.2557L100.08 55.9088C100.512 55.4831 100.938 55.0206 101.464 54.7158C102.596 54.0536 103.696 54.2638 104.911 54.5371C107.721 56.55 110.663 59.9083 111.215 63.4243C111.284 63.8711 111.305 64.3283 111.337 64.7803C113.32 69.8624 110.858 76.5686 109.537 81.5667C110.031 82.9804 110.416 84.6307 111.536 85.6765C106.248 87.7315 100.738 89.5079 95.644 92.0095C94.6968 86.1022 92.4445 86.3808 90.1764 81.7821C88.4872 78.3607 87.4978 74.5399 86.3664 70.9083L85.8612 69.0005C85.3403 67.6761 84.6088 65.9838 85.214 64.5806C85.8349 63.151 87.2558 62.7306 88.5819 62.1893L89.6554 59.7086C90.85 59.1515 92.4866 59.2041 93.518 58.6155C94.481 58.0636 94.6915 56.2977 95.5598 55.9298C96.8228 55.399 98.4699 55.9036 99.7277 56.2557H99.7224Z" fill="#FA9E8D"/>
<path d="M89.6553 59.7035C90.8498 59.1464 92.4865 59.1989 93.5179 58.6103C94.4809 58.0585 94.6914 56.2926 95.5597 55.9247C96.8227 55.3939 98.4698 55.8984 99.7275 56.2506C100.506 57.3227 100.485 58.7259 100.564 60.0083C102.438 60.1187 104.716 60.9333 106.469 60.7651L106.384 59.94C107.048 60.0346 110.094 63.3719 110.631 64.1077C110.815 64.36 110.826 64.4125 110.942 64.6595C110.137 64.7436 110.084 64.8067 109.431 64.3021C106.511 62.0317 103.869 60.9491 100.091 61.2749C99.417 61.3327 98.9329 61.4746 98.3435 61.832C97.9751 62.4311 97.8804 62.6309 98.0225 63.3719C98.3909 65.2849 105.221 67.0193 104.858 68.4015L104.743 68.2386C104.164 68.5381 104.19 68.5224 103.564 68.3384C102.148 70.488 100.696 72.6218 99.8012 75.0551L98.6592 75.2128C99.0855 73.3155 100.054 71.6705 100.98 69.9834C98.775 70.5037 98.7171 71.2343 97.1805 72.5745C96.2438 73.3943 95.1019 73.1368 93.9441 73.0842C93.1022 73.8253 91.9023 74.9237 90.7078 74.929C89.2553 74.929 87.303 72.0068 86.3716 70.9032L85.8664 68.9954C85.3454 67.671 84.6139 65.9787 85.2191 64.5754C85.84 63.1459 87.2609 62.7255 88.587 62.1841L89.6605 59.7035H89.6553Z" fill="#755E6E"/>
<path d="M89.6554 59.7035C90.85 59.1464 92.4866 59.199 93.518 58.6103C94.481 58.0585 94.6915 56.2926 95.5598 55.9247C96.8228 55.3939 98.4699 55.8984 99.7276 56.2506C99.3803 57.1177 99.3277 57.5855 99.4066 58.5052C99.4698 59.2042 99.6592 59.6509 99.254 60.2396L98.9172 60.3604C98.1858 60.6285 97.5858 60.7651 97.128 61.4378C96.8807 62.4784 96.7439 63.3193 97.2333 64.3232C98.1068 66.1153 101.238 66.4885 101.785 68.2123C100.838 68.9586 99.896 69.4158 98.8015 69.9099C93.9495 65.5898 95.5967 62.7517 93.1338 59.3198L92.897 59.5563C92.8813 62.8253 94.0021 65.5162 95.8545 68.1492C96.4071 68.9376 97.1491 69.7312 97.3596 70.6877C96.9807 71.2973 96.1071 72.0489 95.3493 72.1067C91.3341 72.4168 90.329 64.0814 88.8713 62.4837C88.7766 62.3786 88.6766 62.284 88.5819 62.1841L89.6554 59.7035Z" fill="#FA9E8D"/>
<path d="M85.8612 68.9954C85.3403 67.671 84.6088 65.9787 85.214 64.5754C85.8349 63.1459 87.2558 62.7254 88.5819 62.1841C88.5556 62.3418 88.524 62.4942 88.4977 62.6519C87.9609 66.4149 92.8865 71.4655 92.4024 73.2839C91.8551 73.6413 91.5552 73.6886 90.9026 73.5257C88.4556 72.916 87.903 70.2042 85.856 68.9954H85.8612Z" fill="#FA9E8D"/>
<path d="M98.6594 75.218L99.8013 75.0603C99.5277 76.8262 100.128 80.5419 99.2067 81.7875C98.1437 80.2529 98.5015 77.068 98.6594 75.218Z" fill="#755E6E"/>
<path d="M90.0816 278.205C89.2396 276.129 95.9912 247.654 97.5121 244.101C99.1329 240.307 100.791 238.53 104.695 237.001C107.979 235.713 111.5 234.788 113.094 231.272C114.736 227.651 115.309 223.384 115.625 219.463C115.767 217.681 115.794 215.737 116.241 214.008C116.415 213.34 116.525 213.209 117.036 212.783C117.667 212.988 117.856 213.172 118.146 213.782C119.456 216.509 120.346 229.007 120.193 232.376C120.119 233.989 119.867 235.619 119.277 237.127C116.857 243.271 109.821 241.331 107.616 248.017L107.753 248.374C109.41 252.61 113.815 257.797 111.915 262.538C111.205 264.304 109.584 265.455 107.863 266.127C104.853 267.299 101.748 268.03 99.096 269.98C96.728 271.714 92.8075 277.642 90.4131 278.205H90.0868H90.0816Z" fill="#97C2FA"/>
<path d="M66.1693 243.802C63.0908 240.417 57.0232 236.807 55.6445 232.361C55.3235 231.325 55.3761 230.421 55.9497 229.48C56.3865 228.76 57.0022 228.34 57.8284 228.172C60.0701 227.72 63.0171 229.806 64.7484 231.078C75.7837 239.214 85.4402 255.438 87.5399 268.939L88.0503 269.234L88.0029 270.232L87.7661 270.259C86.119 267.783 84.9244 264.998 83.4562 262.412C81.3723 258.738 78.2517 255.448 75.189 252.579C74.0997 251.554 72.8946 250.193 71.5106 249.594L71.1738 249.704C77.1782 254.975 87.1189 266.175 87.6819 274.489C87.724 275.146 87.7609 275.814 87.6819 276.471C82.1933 266.285 76.9677 264.041 66.6271 259.642C64.3643 258.681 61.8909 257.787 59.8123 256.463C58.223 255.448 56.8285 254.113 56.4444 252.2C56.1339 250.655 56.5706 248.958 57.4495 247.67C59.3439 244.885 63.0908 244.327 66.164 243.807L66.1693 243.802Z" fill="#97C2FA"/>
<path d="M139.959 191.304C145.684 198.067 151.641 204.779 158.103 210.844C156.414 211.375 154.614 210.986 152.878 211.143C146.384 211.185 138.033 211.679 133.207 216.672C129.481 220.525 127.766 226.243 126.845 231.383C125.545 238.651 125.798 246.24 125.808 253.598L125.892 278.567C125.934 283.686 126.129 288.847 125.95 293.966C125.934 293.877 125.913 293.788 125.903 293.698C125.624 290.881 124.84 288.322 124.298 285.557C123.487 281.421 122.877 277.164 122.498 272.965C119.956 245.152 125.734 215.458 139.948 191.298L139.959 191.304Z" fill="#97C2FA"/>
<path d="M63.3328 169.288C67.2533 173.293 73.3734 186.537 75.752 191.903L75.8047 192.365C80.3409 201.531 84.0877 211.685 86.4137 221.65C87.0188 224.393 87.6924 227.157 88.1503 229.932C88.9554 222.259 91.6234 216.331 93.8179 209.146C94.4388 207.118 94.5862 204.737 95.4545 202.829L95.6965 202.971V203.129L95.3124 203.145L95.6702 203.418C94.3651 213.235 88.7028 221.513 88.9449 231.719C88.9765 233.028 88.9501 234.615 89.2711 235.887C90.3236 243.555 90.8657 251.223 90.5131 258.964C90.2184 265.397 89.3343 271.925 89.5922 278.368L87.9029 278.095L87.6872 276.465C87.7661 275.808 87.7345 275.141 87.6872 274.484C87.1241 266.17 77.1834 254.97 71.179 249.699L71.5158 249.588C72.9051 250.187 74.1049 251.549 75.1942 252.573C78.257 255.443 81.3776 258.733 83.4615 262.407C84.9297 264.992 86.1242 267.778 87.7714 270.253L88.0082 270.227L88.0555 269.228C88.1503 266.228 88.7081 263.19 88.8817 260.173C89.308 252.6 88.9554 245 87.8187 237.495L87.4767 235.262C86.8241 234.652 86.1558 234.132 85.8138 233.28C86.6242 233.601 87.0241 234.247 87.5819 234.894C87.2346 232.902 86.9662 230.857 86.34 228.929C84.7981 217.624 80.083 204.448 75.1574 194.215L75.0627 193.301C73.6366 190.021 72.2578 186.684 70.6002 183.52C68.1268 178.795 65.322 174.249 63.3381 169.283L63.3328 169.288Z" fill="#243B7A"/>
<path d="M61.4173 104.066C69.0109 103.814 76.7098 103.908 84.3087 103.961C86.4663 103.977 88.9343 104.071 90.5394 105.685C91.7076 108.581 91.034 113.484 90.9814 116.674C89.5553 118.34 88.6923 118.766 86.5084 119.029C86.5136 120.816 86.6031 122.602 86.6715 124.389L86.6136 125.188C85.0454 125.083 81.246 120.232 80.0041 118.871C76.0257 118.913 63.1644 119.78 60.1122 118.135C59.4386 117.773 59.0334 117.331 58.8176 116.59C58.2019 114.483 57.9336 107.445 58.9492 105.679C59.5018 104.718 60.4016 104.344 61.4173 104.061V104.066Z" fill="#FEFEFD"/>
<path d="M104.911 54.532C125.924 47.7208 154.13 47.0796 176.348 46.2808C189.72 45.8025 207.391 46.2492 219.984 42.7858C223.999 41.6821 227.762 39.9898 231.503 38.1924C235.95 41.8555 240.123 45.9496 244.317 49.9071L263.046 67.7341C267.303 71.8282 272.903 78.177 277.907 81.1201C283.943 84.6782 290.779 86.8014 297.552 88.4517L285.096 118.219C282.885 123.564 280.954 129.209 278.349 134.375C277.702 135.652 276.981 136.698 275.992 137.733C270.787 136.204 259.678 135.973 254.011 135.689C253.484 142.206 251.895 150.026 246.706 154.541C242.907 157.852 238.376 158.451 233.535 158.914C233.456 160.953 233.393 162.976 233.419 165.015L233.335 167.096C233.156 171.001 233.514 174.964 233.271 178.827C233.193 180.141 232.956 181.192 231.893 182.059C230.935 182.842 229.677 182.942 228.488 182.811C217.616 181.565 208.275 174.433 201.555 166.277C199.65 166.518 196.819 166.834 195.03 167.506L194.703 167.228C193.488 166.949 192.167 167.202 190.93 167.317C190.578 167.333 190.083 167.291 189.757 167.428C185.384 167.985 181.005 168.5 176.622 168.978C173.128 166.324 169.66 163.638 166.218 160.921C159.53 156.186 153.015 150.951 146.647 145.785C143.942 143.593 140.616 141.281 138.39 138.595C135.544 135.153 131.855 125.772 129.802 121.357C125.598 112.191 121.277 103.083 116.841 94.0331C115.694 91.6734 114.078 87.2587 112.31 85.5769L111.542 85.6715C110.421 84.6256 110.037 82.9753 109.542 81.5616C110.858 76.5635 113.326 69.8574 111.342 64.7752C111.31 64.3232 111.294 63.8712 111.221 63.4193C110.668 59.9085 107.726 56.5502 104.916 54.532H104.911Z" fill="#BEDCFA"/>
<path d="M211.691 100.954C224.562 97.2124 236.219 103.151 249.338 98.9888C250.501 101.785 251.29 104.702 251.895 107.661C252.216 109.227 252.395 110.851 252.906 112.364C252.758 114.34 253.437 116.884 253.621 118.929C254.121 124.4 254.511 130.212 254.006 135.694C253.479 142.211 251.89 150.031 246.701 154.546C242.902 157.857 238.371 158.456 233.53 158.918C233.451 160.958 233.387 162.981 233.414 165.02L233.33 167.101C233.151 171.006 233.508 174.969 233.266 178.832C233.187 180.146 232.951 181.197 231.888 182.064C230.93 182.847 229.672 182.947 228.483 182.816C217.611 181.57 208.27 174.438 201.55 166.281C202.087 166.134 202.729 165.992 203.123 165.572C205.228 163.333 205.255 150.21 205.491 146.673L203.197 145.049C204.392 144.455 205.502 143.745 206.628 143.031C209.401 140.618 211.317 137.46 211.912 133.807C212.764 128.546 210.743 124.074 207.754 119.906C211.606 113.831 212.364 108.018 211.691 100.96V100.954Z" fill="#FA9E8D"/>
<path d="M212.038 151.356C219.584 156.412 224.278 158.813 233.535 158.918C233.456 160.958 233.393 162.981 233.419 165.02C232.251 164.878 231.072 164.684 229.919 164.447C221.821 162.792 216.416 158.093 212.038 151.35V151.356Z" fill="#986167"/>
<path d="M219.789 149.316C221.568 148.129 223.468 147.235 225.678 147.629C227.088 147.871 228.341 148.675 229.146 149.852C229.814 150.819 230.172 152.007 229.909 153.169C229.725 154.015 229.183 154.74 228.425 155.161C227.088 155.907 225.488 155.628 224.11 155.161C222.394 154.577 220.921 153.647 219.584 152.438C219.505 151.319 219.526 150.41 219.784 149.311L219.789 149.316Z" fill="#243B7A"/>
<path d="M206.628 143.026C210.159 145.948 215.206 148.634 219.789 149.317C219.531 150.41 219.51 151.324 219.589 152.444C214.537 151.072 209.996 149.375 205.491 146.673L203.197 145.049C204.391 144.455 205.502 143.746 206.628 143.031V143.026Z" fill="#DDEAF9"/>
<path d="M227.23 139.425C231.956 139.331 240.249 139.473 244.833 139.993C245.633 140.082 245.959 140.051 246.454 140.687C246.554 142.71 244.849 144.734 243.575 146.179C242.012 147.482 240.465 148.434 238.429 148.796C236.108 149.211 233.719 148.67 231.808 147.298C229.014 145.333 227.814 142.668 227.23 139.425Z" fill="#FEFEFD"/>
<path d="M237.055 114.903C237.165 114.966 237.276 115.013 237.376 115.087C238.797 116.143 243.759 131.348 243.759 133.833C243.759 134.564 243.601 135.216 243.007 135.704C241.744 136.745 239.818 136.619 238.276 136.624C237.723 136.372 237.36 136.262 237.055 135.715C237.792 135.058 240.365 135.489 241.796 134.511C242.086 134.091 242.291 133.786 242.365 133.266C242.838 129.802 237.429 119.696 237.076 115.139C237.071 115.06 237.065 114.987 237.06 114.908L237.055 114.903Z" fill="#986167"/>
<path d="M227.972 112.196C228.719 112.196 229.619 112.212 230.219 112.738C230.74 113.195 230.766 113.342 230.798 113.983C230.672 114.188 230.614 114.472 230.409 114.593C229.34 115.224 225.52 115.529 223.836 116.191L223.489 116.333C222.804 116.601 222.036 117.005 221.289 116.942C220.899 116.911 220.82 116.701 220.573 116.443C220.594 115.881 220.731 115.55 221.099 115.113C222.868 113.006 225.383 112.48 227.972 112.202V112.196Z" fill="#243B7A"/>
<path d="M242.633 111.371C245.575 111.166 248.296 111.539 250.622 113.578C251.19 114.078 251.706 114.672 251.737 115.455C251.332 115.922 250.969 115.959 250.395 116.096C246.754 113.615 244.049 114.824 241.791 113.505C241.46 113.31 241.486 113.121 241.381 112.785C241.633 112.028 242.002 111.797 242.633 111.366V111.371Z" fill="#243B7A"/>
<path d="M225.43 120.532C226.546 120.469 227.593 120.437 228.63 120.905C229.709 121.388 230.535 122.571 230.872 123.675C231.056 124.263 230.966 124.778 230.688 125.32L230.203 125.404C229.109 124.699 228.672 123.117 227.656 122.166C224.841 121.972 225.109 124.331 223.32 125.698C223.152 125.593 222.899 125.451 222.773 125.304C222.378 124.82 222.383 124.205 222.557 123.643C222.999 122.213 224.194 121.252 225.425 120.542L225.43 120.532Z" fill="#243B7A"/>
<path d="M245.722 119.249C246.301 119.318 246.911 119.391 247.469 119.586C248.548 119.959 249.453 120.81 249.842 121.882C250.121 122.634 250.106 123.259 249.758 123.99L249.322 124.116C248.332 123.427 247.953 121.951 246.959 121.068C246.896 121.01 246.822 120.952 246.759 120.894C246.438 120.947 246.28 120.963 245.99 121.036C245.212 121.241 244.885 121.772 244.501 122.424C244.175 122.981 243.864 123.454 243.459 123.953C242.791 124.006 242.744 124.063 242.207 123.68C242.038 122.834 242.48 122.019 242.907 121.309C243.643 120.08 244.364 119.617 245.727 119.244L245.722 119.249Z" fill="#243B7A"/>
<path d="M232.351 74.5086L232.861 74.929C235.924 74.6242 239.408 70.446 242.781 72.3117C243.454 73.1947 243.454 73.7991 243.312 74.866C243.133 76.1746 242.544 77.457 242.018 78.6605C246.433 76.9262 251.658 75.0657 256.316 77.1049C258.389 78.0141 260.005 79.6959 260.741 81.8402C261.715 84.6572 261.068 87.8315 259.705 90.4015C258.305 93.0346 256.268 94.8425 254.026 96.7345C254.832 102.048 255.053 107.309 252.911 112.365C252.4 110.851 252.216 109.227 251.9 107.661C251.295 104.697 250.506 101.785 249.343 98.9892C236.224 103.152 224.568 97.2128 211.696 100.955C212.369 108.013 211.606 113.831 207.759 119.901C210.748 124.064 212.775 128.536 211.917 133.802C211.322 137.455 209.407 140.614 206.633 143.026C205.507 143.741 204.402 144.45 203.202 145.044C201.981 145.307 200.745 145.622 199.508 145.785C197.998 145.711 196.598 145.396 195.14 145.023C193.551 144.597 192.067 143.861 190.767 142.858C187.762 140.55 186.063 136.929 185.552 133.235C184.863 128.258 186.247 124.279 189.225 120.301C190.041 119.523 191.178 118.671 191.667 117.652C192.567 117.468 193.277 117.147 194.098 116.737C196.219 116.117 198.166 115.765 200.387 115.833C201.018 107.64 202.955 100.377 207.681 93.5391C213.259 85.456 222.305 76.3901 232.361 74.5033L232.351 74.5086Z" fill="#243B7A"/>
<path d="M191.662 117.657C192.562 117.473 193.272 117.152 194.093 116.743C194.493 118.267 194.893 119.754 195.077 121.32C197.798 121.304 199.897 121.42 201.981 123.438C203.597 124.999 204.423 127.191 204.423 129.419C204.423 131.332 203.586 134.181 202.129 135.51C200.913 136.619 199.24 137.076 197.834 137.891C197.834 140.477 198.84 143.283 199.497 145.79C197.987 145.717 196.587 145.401 195.13 145.028C193.54 144.602 192.056 143.867 190.757 142.863C187.752 140.556 186.052 136.935 185.542 133.24C184.852 128.263 186.236 124.284 189.215 120.306C190.03 119.528 191.167 118.677 191.656 117.657H191.662Z" fill="#FEFEFD"/>
<path d="M199.503 145.785C200.739 145.622 201.976 145.302 203.197 145.044L205.491 146.668C205.249 150.21 205.223 163.328 203.123 165.567C202.729 165.988 202.087 166.129 201.55 166.277C199.645 166.518 196.814 166.834 195.024 167.506L194.698 167.228C193.483 166.949 192.162 167.202 190.925 167.317C190.572 167.333 190.078 167.291 189.751 167.428C185.378 167.985 181 168.5 176.617 168.978C173.122 166.324 169.654 163.638 166.213 160.921C168.923 159.145 171.459 157.1 174.191 155.34C180.874 151.03 187.757 147.898 195.14 145.018C196.598 145.391 197.998 145.706 199.508 145.78L199.503 145.785Z" fill="#97C2FA"/>
<path d="M218.71 72.2907C221.184 70.9348 226.099 71.0924 228.767 71.8387C229.888 72.1488 231.672 72.8898 232.187 74.0198C232.261 74.1775 232.298 74.3456 232.351 74.5086C222.294 76.3953 213.253 85.4612 207.67 93.5443C202.95 100.382 201.013 107.645 200.376 115.839C198.161 115.77 196.208 116.128 194.088 116.743C193.267 117.152 192.556 117.468 191.656 117.657C191.041 110.841 192.583 102.941 195.124 96.6399C199.597 85.5453 207.638 76.9366 218.705 72.2907H218.71Z" fill="#DDEAF9"/>
<path d="M189.22 120.306C185.973 113.048 184.163 104.287 185.231 96.3612C186.173 89.3765 189.436 82.9909 195.156 78.7444C200.729 74.6083 211.88 71.3025 218.71 72.2906C207.643 76.9365 199.602 85.5452 195.129 96.6397C192.588 102.941 191.041 110.84 191.662 117.657C191.172 118.671 190.035 119.528 189.22 120.306Z" fill="#243B7A"/>
<path d="M134.886 57.5643C140.59 57.5906 170.433 56.9389 173.317 57.948C174.543 58.3789 175.659 59.4774 176.211 60.6388C176.711 61.6952 176.869 62.925 176.953 64.0813C177.18 67.1716 177.295 84.8514 176.522 86.9799C175.696 89.2503 173.875 90.086 171.822 90.9952C171.98 93.3865 172.764 98.3793 172.128 100.471L171.701 100.334C167.66 97.2704 163.96 93.7859 159.914 90.7377C155.088 90.5852 133.623 91.6942 131.076 89.8863C129.913 89.0611 128.855 87.6631 128.639 86.2284C128.066 82.3918 128.092 66.6512 128.634 62.7726C128.797 61.5901 129.039 60.4864 129.813 59.5509C131.107 57.9848 132.991 57.722 134.886 57.5643Z" fill="#FEFEFD"/>
<path d="M140.706 71.2604C142.463 70.8189 144.253 71.8648 144.726 73.6149C145.2 75.365 144.179 77.1677 142.437 77.6722C141.285 78.0033 140.037 77.688 139.185 76.8471C138.332 76.0062 137.996 74.7659 138.311 73.6096C138.627 72.4534 139.543 71.5547 140.706 71.2604Z" fill="#BEDCFA"/>
<path d="M162.871 71.2866C164.581 70.8451 166.339 71.8332 166.849 73.5202C167.36 75.2073 166.449 76.9994 164.781 77.5881C163.639 77.9875 162.366 77.73 161.466 76.9154C160.571 76.1007 160.192 74.8604 160.487 73.6832C160.782 72.5059 161.692 71.5862 162.866 71.2866H162.871Z" fill="#BEDCFA"/>
<path d="M151.836 71.3024C153.588 70.8714 155.362 71.9278 155.814 73.6727C156.267 75.4175 155.225 77.2044 153.483 77.6722C152.341 77.9822 151.115 77.6511 150.283 76.8102C149.452 75.9694 149.131 74.7448 149.452 73.6043C149.773 72.4639 150.683 71.5862 151.83 71.3024H151.836Z" fill="#BEDCFA"/>
<path d="M302.235 82.0134C304.871 75.7015 299.593 70.8821 299.962 64.733C300.214 60.5075 301.509 54.7211 304.94 51.9409C306.045 51.0474 307.35 50.6007 308.776 50.8372C310.029 51.0422 310.623 51.6886 311.297 52.7082H311.423C312.044 52.0565 312.555 51.6834 313.481 51.6518C314.512 51.6203 315.438 52.025 316.154 52.7555C316.622 53.2338 316.891 53.8434 316.991 54.4951L317.364 54.5161C318.275 54.185 319.122 54.0642 320.048 54.4583C320.901 54.8262 321.606 55.6408 321.869 56.5343C321.974 56.8759 322.006 57.2385 322.053 57.5959C323.048 57.4698 323.837 57.3542 324.695 57.9953C325.463 58.5682 325.953 59.551 326.042 60.497C326.132 61.4903 325.989 63.0512 325.521 63.9447C325.221 64.9538 324.953 65.9576 324.506 66.9141C323.737 70.4038 323.553 74.0407 322.169 77.3727C320.774 80.7258 318.043 83.2222 317.322 86.8749C312.318 85.1353 307.319 83.5165 302.235 82.0134Z" fill="#FA9E8D"/>
<path d="M311.429 52.7028C312.05 52.0564 312.56 51.6832 313.486 51.6517C314.518 51.6202 315.444 52.0249 316.16 52.7554C316.628 53.2336 316.896 53.8433 316.996 54.495L317.37 54.516C318.28 54.1849 319.128 54.064 320.054 54.4582C320.906 54.8261 321.611 55.6407 321.874 56.5342C321.98 56.8758 322.011 57.2384 322.059 57.5958C323.053 57.4697 323.843 57.354 324.7 57.9952C325.469 58.5681 325.958 59.5509 326.048 60.4969C326.137 61.4902 325.995 63.0511 325.527 63.9446C325.227 64.9536 324.958 65.9575 324.511 66.914C323.622 68.0544 322.532 69.484 321.106 69.9359C320.322 69.9254 319.954 69.568 319.338 69.1423C318.807 68.7745 317.896 68.0439 317.249 68.1648C316.175 68.3698 315.302 68.8901 314.291 68.1911C313.36 67.5499 313.186 66.2623 312.018 65.8996L311.276 66.01L311.102 66.3832C312.118 67.7233 312.976 69.0372 313.555 70.6297C313.344 71.0869 313.092 71.5442 312.923 72.0172C311.892 67.6971 307.534 65.2585 307.308 64.1232C307.729 63.3612 308.582 63.1037 309.339 62.7463C310.155 62.1787 311.066 61.7057 311.813 61.0435C312.655 60.3024 313.276 59.4668 313.344 58.3263C312.976 57.7482 312.771 57.5327 312.076 57.3856C310.16 56.9809 306.519 57.9059 304.751 58.8046C303.514 59.4353 302.346 60.5389 301.104 61.2642C302.051 59.3512 302.677 58.2265 304.693 57.3435L304.609 57.4959C306.677 56.9021 308.808 56.5867 310.929 56.2136C310.929 55.0311 310.802 53.7907 311.308 52.6976H311.434L311.429 52.7028Z" fill="#755E6E"/>
<path d="M317.37 54.5214C318.28 54.1903 319.128 54.0695 320.054 54.4636C320.906 54.8315 321.611 55.6461 321.875 56.5396C321.98 56.8812 322.011 57.2438 322.059 57.6012C323.053 57.4751 323.843 57.3595 324.701 58.0006C325.469 58.5735 325.958 59.5563 326.048 60.5023C326.137 61.4956 325.995 63.0565 325.527 63.95C323.806 65.0852 323.19 68.0599 321.027 68.6012C320.354 68.7694 320.027 68.6222 319.454 68.3384C318.98 66.6619 320.627 64.6595 321.369 63.1669C322.075 61.7374 322.796 59.777 322.169 58.1898C322.117 58.0637 322.059 57.9376 322.006 57.8062C321.169 60.5076 321.075 62.8463 319.149 65.1693C318.201 66.3097 317.359 67.2032 315.786 67.2558C314.939 67.2873 314.46 67.035 313.855 66.4727C313.713 64.7383 315.281 63.4875 316.244 62.1788C317.817 60.0451 317.849 57.2911 317.417 54.7579C317.402 54.6791 317.391 54.6003 317.375 54.5214H317.37Z" fill="#FA9E8D"/>
<path d="M311.428 52.7028C312.049 52.0564 312.56 51.6832 313.486 51.6517C314.517 51.6202 315.444 52.0249 316.159 52.7554C316.628 53.2336 316.896 53.8433 316.996 54.495C316.954 54.6159 316.912 54.7367 316.875 54.8576C316.601 55.7721 316.738 56.7602 316.596 57.6956C316.275 59.8347 315.128 63.3612 313.118 64.5017C312.36 64.9326 311.165 65.0955 310.339 64.7487C310.023 64.6173 309.987 64.57 309.734 64.3913L309.871 63.7343C311.713 62.8934 313.923 61.1276 314.654 59.1777C314.965 58.3579 314.854 57.827 314.486 57.0597C313.875 56.5079 313.281 56.4606 312.497 56.3345L312.155 56.2819C311.449 55.6249 311.955 53.7697 311.423 52.6976L311.428 52.7028Z" fill="#FA9E8D"/>
<path d="M313.549 70.6349C314.118 72.6584 314.639 75.1232 313.77 77.1466L313.507 77.0731L313.455 76.9732L313.776 77.1151C313.255 76.5895 313.212 76.2111 313.191 75.4754C313.155 74.2245 313.223 73.268 312.923 72.0277C313.091 71.5547 313.344 71.0974 313.554 70.6402L313.549 70.6349Z" fill="#755E6E"/>
</g>
<defs>
<clipPath id="clip0_4023_2371">
<rect width="470" height="353.371" fill="white"/>
</clipPath>
</defs>
</svg>
