<svg width="470" height="354" viewBox="0 0 470 354" fill="none" xmlns="http://www.w3.org/2000/svg">
<g clip-path="url(#clip0_4023_2495)">
<path d="M6.43069 225.802C4.94914 220.749 3.88789 215.543 2.95273 210.364C-6.62478 157.358 7.61277 94.5716 38.3155 50.4009C55.6317 25.4869 74.876 7.26501 105.679 1.7811C140.752 -4.46446 179.131 6.40881 209.534 23.785C217.131 28.1291 224.102 33.2033 231.263 38.1987C241.298 32.3996 250.865 25.8599 260.805 19.919C286.774 4.41275 309.123 -1.01338 339.117 5.23744C373.865 12.481 408.382 29.3687 428.33 59.8612C442.615 81.6865 444.758 107.588 442.604 132.985C442.026 139.835 441.349 146.784 439.935 153.524L440.03 153.918C444.721 160.793 448.557 168.373 452.061 175.906C462.232 197.815 468.826 220.518 469.104 244.78C469.157 249.797 469.193 255.176 468.29 260.103C468.242 260.36 468.19 260.612 468.122 260.864L468.095 262.072C468.185 266.858 468.484 271.701 468.316 276.481C467.859 289.597 464.47 301.789 460.225 314.112L463.451 314.133C463.504 316.843 463.503 319.554 463.461 322.269L457.131 322.348L457.12 326.624L457.131 353.224L272.636 353.245H214.126H195.181C191.934 353.245 188.614 353.392 185.372 353.208C167.793 353.544 150.156 353.25 132.572 353.25L47.3729 353.172C47.3098 349.038 47.3413 344.898 47.3308 340.764C33.3665 330.821 21.8871 317.799 13.7701 302.703C-0.188989 276.418 -2.28522 254.277 6.43069 225.802Z" fill="#BFDBF8"/>
<path d="M6.43069 225.802C4.94914 220.749 3.88789 215.543 2.95273 210.364C-6.62479 157.358 7.61278 94.5716 38.3155 50.4009C55.6317 25.4869 74.876 7.26501 105.679 1.7811C140.752 -4.46446 179.131 6.40881 209.534 23.785C217.131 28.1291 224.102 33.2033 231.263 38.1987C241.298 32.3996 250.865 25.8599 260.805 19.919C286.774 4.41275 309.123 -1.01338 339.117 5.23744C373.865 12.481 408.382 29.3687 428.33 59.8612C442.615 81.6865 444.758 107.588 442.604 132.985C442.026 139.835 441.349 146.784 439.935 153.524C435.338 146.879 430.684 140.313 425.451 134.141C408.439 114.075 386.5 98.3851 360.258 93.6156C353.365 92.4179 346.393 91.7246 339.4 91.5512C321.359 90.9366 303.554 92.1763 286.354 85.5158C281.483 83.63 277.154 81.4921 273.209 78.0253C269.253 74.548 265.549 70.7134 261.761 67.0522L243.993 50.0595C239.843 46.0936 235.629 41.718 231.037 38.288C226.377 40.4679 221.843 42.4009 216.789 43.5197C208.352 45.3845 199.268 45.458 190.647 45.8152C178.09 46.3352 165.513 46.6084 152.967 47.2492C142.108 47.764 131.296 48.9721 120.594 50.8631C100.614 54.393 81.7532 60.2604 66.26 73.9176C58.4424 80.804 52.3113 89.3188 48.7809 99.1573C42.2557 117.332 46.7844 137.046 40.79 154.579C38.0475 162.606 33.419 170.28 29.2948 177.681C20.8048 192.914 11.2904 209.082 6.42543 225.896C7.49194 228.88 8.2222 232.011 9.13109 235.047C10.35 239.044 11.7212 243.005 13.2448 246.902C22.3547 270.498 36.8076 291.157 53.63 309.868C54.9802 311.37 56.5353 312.662 57.8855 314.133L40.3014 314.212L40.3119 322.28L47.2783 322.296C47.3518 327.496 47.3834 332.696 47.3834 337.902L47.3361 340.754C33.3717 330.81 21.8924 317.789 13.7754 302.692C-0.188989 276.418 -2.28522 254.277 6.43069 225.802Z" fill="#DDE9F7"/>
<path d="M248.101 214.235C249.646 215.018 251.075 215.585 252.814 215.795C253.949 215.927 254.5 216.042 255.394 216.772C255.64 217.198 255.835 217.487 256.208 217.812L258.409 219.325C260.695 219.309 263.006 219.367 265.286 219.273L266.101 219.435L266.778 219.278L272.353 219.262C273.183 219.299 274.055 219.189 274.764 219.635C277.827 226.742 283.081 256.862 286.144 260.265C288.681 263.091 294.245 264.867 297.586 266.837C298.605 263.428 300.896 259.866 302.388 256.599C306.817 246.697 311.335 236.827 315.932 226.999C329.334 226.821 342.778 226.978 356.186 226.963C366.425 226.952 376.738 226.695 386.967 227.021C391.454 227.541 396.314 227.178 400.848 227.178H431.177C435.302 227.189 439.667 226.826 443.755 227.115C444.391 227.162 445.21 227.168 445.678 227.667C446.14 228.155 446.539 228.796 446.928 229.347L447.301 229.684C446.329 233.161 441.102 242.443 439.147 246.293L415.222 293.526L407.893 307.688C406.848 309.705 405.34 311.984 404.657 314.122L282.907 314.138C258.588 314.148 234.226 313.791 209.907 314.227L209.881 310.303C211.688 309.431 212.597 308.565 213.779 306.994C215.376 307.766 218.371 307.341 220.162 307.309C220.188 301.474 220.094 295.632 219.878 289.791C219.784 286.918 219.868 283.866 219.353 281.035L219.332 280.263C219.521 274.338 218.707 268.008 218.271 262.072C217.703 254.393 217.446 246.314 216.112 238.734L216.437 238.041C218.896 235.063 221.523 232.221 223.777 229.08L221.691 225.844C222.363 225.182 223.041 224.473 223.924 224.1C225.873 223.296 228.148 223.097 230.223 222.755C235.976 221.815 241.45 220.497 246.299 217.13C246.977 216.457 247.445 215.753 247.954 214.944L248.08 214.235H248.101Z" fill="#FDFDFD"/>
<path d="M248.101 214.235C249.646 215.018 251.075 215.585 252.814 215.795C253.949 215.926 254.5 216.042 255.393 216.772C255.64 217.198 255.835 217.486 256.208 217.812L258.409 219.325C260.694 219.309 263.006 219.367 265.286 219.272L266.101 219.435L266.778 219.278L272.352 219.262C273.183 219.299 274.055 219.188 274.764 219.635C277.827 226.742 283.081 256.861 286.143 260.265C288.681 263.091 294.245 264.867 297.586 266.836C293.057 276.717 288.04 286.744 284.094 296.84C282.476 300.349 280.895 303.884 279.23 307.372C275.799 307.435 269.468 308.06 266.253 307.367C260.847 307.225 255.425 307.325 250.019 307.335C250.035 303.732 250.171 300.071 249.888 296.483C249.567 300.034 249.751 303.721 249.761 307.283L229.987 307.314C226.766 307.32 223.372 307.54 220.167 307.304C220.194 301.468 220.099 295.627 219.884 289.786C219.789 286.913 219.873 283.861 219.358 281.029L219.337 280.257C219.526 274.332 218.712 268.002 218.276 262.067C217.709 254.387 217.451 246.308 216.117 238.729L216.442 238.035C218.901 235.057 221.528 232.215 223.782 229.074L221.696 225.838C222.369 225.177 223.046 224.467 223.929 224.094C225.878 223.291 228.153 223.091 230.228 222.75C235.981 221.809 241.455 220.491 246.305 217.124C246.982 216.452 247.45 215.748 247.959 214.939L248.086 214.23L248.101 214.235Z" fill="#253B79"/>
<path d="M221.707 225.839C222.379 225.177 223.057 224.468 223.939 224.095C225.889 223.291 228.163 223.091 230.239 222.75C235.991 221.81 241.466 220.491 246.315 217.124C248.469 234.443 249.409 254.004 249.62 271.538C249.541 274.143 249.409 276.917 249.825 279.501C249.867 285.116 250.134 290.868 249.888 296.473C249.567 300.024 249.751 303.711 249.761 307.273L229.987 307.304C226.766 307.309 223.372 307.53 220.167 307.294C220.194 301.458 220.099 295.617 219.884 289.776C219.789 286.902 219.873 283.85 219.358 281.019L219.337 280.247C219.526 274.322 218.712 267.992 218.276 262.057C217.709 254.377 217.451 246.298 216.117 238.718L216.442 238.025C218.901 235.047 221.528 232.205 223.782 229.064L221.696 225.828L221.707 225.839Z" fill="#FDFDFD"/>
<path d="M248.101 214.235C249.646 215.018 251.075 215.585 252.814 215.795C253.948 215.927 254.5 216.042 255.393 216.772C255.64 217.198 255.835 217.487 256.208 217.812C254.747 220.307 252.367 223.349 251.894 226.243C252.036 226.653 252.173 227.057 252.336 227.462C254.437 230.976 258.435 236.806 259.47 240.546C260.216 245.883 253.817 274.469 250.523 278.844C250.297 279.154 250.113 279.286 249.83 279.506C249.415 276.922 249.546 274.149 249.625 271.543C249.409 254.009 248.469 234.448 246.32 217.13C246.998 216.457 247.465 215.753 247.975 214.944L248.101 214.235Z" fill="#253B79"/>
<path d="M255.393 216.772C255.64 217.198 255.835 217.487 256.208 217.812C254.747 220.308 252.367 223.349 251.894 226.243C252.036 226.653 252.173 227.057 252.336 227.462C254.437 230.976 258.435 236.807 259.47 240.547C260.216 245.883 253.817 274.469 250.523 278.845C250.297 279.154 250.113 279.286 249.83 279.506C249.415 276.922 249.546 274.149 249.625 271.543C250.071 273.875 249.898 276.617 249.998 279.007C250.507 276.103 251.653 273.187 252.478 270.346C254.301 264.095 259.045 247.076 258.703 241.156C256.66 236.796 253.912 232.825 251.747 228.523C251.227 227.835 250.87 226.874 250.486 226.096C251.574 222.834 253.67 219.73 255.399 216.772H255.393Z" fill="#7B89AC"/>
<path d="M267.666 288.147C272.216 292.008 278.688 294.44 284.099 296.835C282.481 300.344 280.9 303.879 279.234 307.367C275.804 307.43 269.473 308.055 266.258 307.362C267.104 307.362 268.007 307.483 268.759 307.047C268.895 304.604 268.48 302.046 268.28 299.609C267.955 295.795 267.75 291.976 267.666 288.147Z" fill="#97C1F9"/>
<path d="M266.106 219.435L266.783 219.278C267.009 229.668 267.146 240.063 267.204 250.458C267.235 255.265 267.419 260.123 267.241 264.924C267.572 269.4 267.561 273.922 267.671 278.408C267.75 281.518 268.029 284.79 267.766 287.89L267.54 287.911C266.389 284.759 266.615 275.215 266.705 271.548C266.242 265.486 266.431 259.262 266.374 253.179L266.106 219.425V219.435Z" fill="#9DA7C0"/>
<path d="M386.978 227.015C391.464 227.535 396.324 227.173 400.858 227.173H431.188C435.312 227.183 439.678 226.821 443.765 227.11C444.401 227.157 445.22 227.162 445.688 227.661C446.15 228.15 446.55 228.79 446.938 229.342C437.466 229.085 427.946 229.284 418.474 229.295L363.299 229.332L336.5 229.342C332.46 229.337 326.712 228.817 322.872 229.531C322.262 229.605 321.968 229.542 321.553 230.035C320.229 231.611 316.347 241.392 315.207 243.908L296.173 285.662L288.003 303.443C286.553 306.568 284.846 309.736 283.642 312.956L282.928 314.133C258.609 314.143 234.247 313.786 209.928 314.222L209.901 310.298C211.709 309.426 212.618 308.559 213.8 306.989C215.397 307.761 218.391 307.335 220.183 307.304C223.388 307.54 226.782 307.32 230.002 307.314L249.777 307.283C249.767 303.721 249.583 300.034 249.903 296.483C250.187 300.071 250.05 303.732 250.034 307.335C255.441 307.325 260.862 307.225 266.268 307.367C269.478 308.06 275.809 307.44 279.245 307.372C280.911 303.884 282.492 300.354 284.11 296.84C288.056 286.739 293.073 276.712 297.602 266.836C298.621 263.427 300.911 259.866 302.403 256.599C306.832 246.697 311.351 236.827 315.948 226.999C329.35 226.821 342.794 226.978 356.201 226.963C366.441 226.952 376.754 226.695 386.983 227.02L386.978 227.015Z" fill="#DDE9F7"/>
<path d="M366.987 268.517C370.891 267.945 376.045 268.307 379.517 270.345C381.051 271.244 382.465 272.578 382.838 274.38C383.116 275.745 382.717 277.101 381.908 278.219C379.507 281.55 374.511 282.642 370.712 283.346C366.283 283.73 361.161 283.761 357.257 281.319C355.865 280.447 354.573 279.16 354.226 277.495C353.942 276.113 354.342 274.81 355.182 273.697C357.756 270.277 362.994 269.08 366.992 268.523L366.987 268.517Z" fill="#DDE9F7"/>
<path d="M174.245 313.713C178.841 314.485 183.869 314.112 188.54 314.112C192.065 314.112 195.706 314.29 199.221 314.07L200.981 313.739C202.835 314.863 207.632 314.149 209.917 314.222C234.231 313.781 258.598 314.138 282.918 314.133L404.667 314.117L458.318 314.128L460.236 314.117L463.461 314.138C463.514 316.848 463.514 319.559 463.472 322.275L457.141 322.353L457.131 326.629L457.141 353.229L272.647 353.25H214.136H195.191C191.944 353.25 188.624 353.397 185.382 353.214C167.803 353.55 150.167 353.256 132.583 353.256L47.3831 353.177C47.3201 349.043 47.3516 344.904 47.3411 340.77L47.3884 337.917C47.3884 332.717 47.3569 327.512 47.2833 322.311L40.3169 322.296L40.3064 314.227L57.8906 314.149L80.4342 314.128C85.8088 314.185 91.1886 314.175 96.5631 314.096L115.965 314.143C119.039 314.149 122.727 314.527 125.726 313.923L147.755 313.975C151.076 313.954 154.417 313.865 157.732 313.959C160.511 313.928 172.563 314.564 174.239 313.718L174.245 313.713Z" fill="#5A6D99"/>
<path d="M457.131 326.629L457.141 353.229L272.646 353.25H214.136H195.191C191.944 353.25 188.624 353.397 185.382 353.214C187.815 352.93 190.41 353.061 192.864 353.014C192.801 344.226 192.995 335.422 192.984 326.629C211.562 326.781 230.133 326.818 248.711 326.739L332.991 326.76C374.358 326.703 415.763 327.118 457.125 326.629H457.131Z" fill="#7B89AC"/>
<path d="M199.221 314.064L200.981 313.733C202.835 314.857 207.632 314.143 209.917 314.217C234.231 313.775 258.598 314.133 282.918 314.127L404.667 314.112L458.318 314.122L460.236 314.112L463.461 314.133C463.514 316.843 463.514 319.553 463.472 322.269L457.141 322.348C454.535 322.206 451.845 322.337 449.224 322.332L429.811 322.379L379.323 322.343L199.2 322.201C199.315 319.469 199.31 316.78 199.215 314.054L199.221 314.064Z" fill="#9DA7C0"/>
<path d="M174.245 313.713C178.842 314.485 183.869 314.112 188.54 314.112C192.065 314.112 195.706 314.29 199.221 314.07C199.31 316.801 199.321 319.491 199.205 322.217L193.027 322.243L192.901 326.619L120.657 326.64C96.3268 326.724 71.9969 326.65 47.667 326.419C47.7247 329.65 48.2816 334.981 47.4043 337.917C47.4043 332.717 47.3727 327.512 47.2992 322.311L40.3328 322.296L40.3223 314.227L57.9064 314.149L80.4501 314.128C85.8247 314.185 91.2045 314.175 96.579 314.096L115.981 314.143C119.054 314.149 122.742 314.527 125.742 313.923L147.771 313.975C151.091 313.954 154.433 313.865 157.748 313.959C160.527 313.928 172.579 314.564 174.255 313.718L174.245 313.713Z" fill="#7B89AC"/>
<path d="M47.5249 322.233C65.1564 322.516 82.8298 322.275 100.467 322.269L193.026 322.238L192.9 326.613L120.657 326.635C96.3266 326.719 71.9967 326.645 47.6668 326.414L47.5302 322.238L47.5249 322.233Z" fill="#253B79"/>
<path d="M257.49 135.943C300.828 138.485 332.796 152.105 361.955 184.846C373.008 197.101 381.514 211.436 386.973 227.015C376.744 226.69 366.431 226.947 356.191 226.958C342.779 226.973 329.34 226.816 315.937 226.994C311.34 236.822 306.822 246.692 302.393 256.594C300.901 259.861 298.611 263.422 297.591 266.831C294.25 264.856 288.686 263.081 286.149 260.26C283.081 256.856 277.832 226.737 274.769 219.63C274.06 219.189 273.188 219.294 272.358 219.257L266.784 219.273L266.106 219.43L265.292 219.267C263.011 219.362 260.7 219.31 258.414 219.32L256.213 217.807C255.84 217.487 255.646 217.193 255.399 216.767C254.506 216.037 253.949 215.921 252.819 215.79C251.08 215.575 249.651 215.013 248.107 214.23C247.671 212.833 247.313 212.103 248.002 210.753L248.164 210.417C248.27 209.97 248.411 209.487 248.438 209.03C248.49 208.132 247.692 207.317 247.177 206.645L247.235 205.468L247.445 205.426L248.201 205.39C249.199 202.9 246.893 201.918 246.951 199.606C246.977 198.771 246.825 198.12 246.599 197.327C246.489 196.25 246.42 194.905 245.69 194.065L246.1 193.886C246.41 192.589 246.184 190.955 245.895 189.668C246.084 188.544 245.942 187.189 245.947 186.033C246.956 185.97 247.981 186.017 248.995 186.033L250.182 185.949C247.96 180.912 245.611 175.643 242.517 171.078L241.676 170.747C240.252 170.511 239.07 169.739 237.573 169.629L236.27 167.596L236.228 166.908C236.281 164.765 236.286 162.627 236.312 160.484C241.109 160.126 246.068 159.354 249.872 156.161C255.556 151.396 256.849 142.86 257.495 135.916L257.49 135.943Z" fill="#97C1F9"/>
<path d="M250.176 185.965H251.49H262.974C271.207 186.075 279.439 186.022 287.667 186.033C287.667 196.213 287.031 208.499 279.319 216.1C277.191 218.196 275.294 219.094 272.352 219.262L266.778 219.278L266.1 219.435L265.286 219.273C263.006 219.367 260.694 219.315 258.409 219.325L256.208 217.812C255.834 217.492 255.64 217.198 255.393 216.772C254.5 216.042 253.943 215.927 252.814 215.795C251.075 215.58 249.646 215.018 248.101 214.235C247.665 212.838 247.308 212.108 247.996 210.758L248.159 210.422C248.264 209.975 248.406 209.492 248.432 209.035C248.485 208.137 247.686 207.322 247.171 206.65L247.229 205.473L247.439 205.431L248.196 205.395C249.194 202.905 246.887 201.923 246.945 199.611C246.971 198.776 246.819 198.125 246.593 197.332C246.483 196.255 246.415 194.91 245.684 194.07L246.094 193.891C246.404 192.594 246.178 190.96 245.889 189.673C246.078 188.549 245.936 187.194 245.942 186.038C246.95 185.975 247.975 186.022 248.989 186.038L250.176 185.954V185.965Z" fill="#FDFDFD"/>
<path d="M250.177 185.965H251.49C252.042 196.444 252.993 208.567 261.341 216.058C262.476 217.072 263.978 218.542 265.292 219.273C263.011 219.367 260.7 219.315 258.414 219.325L256.213 217.812C255.84 217.492 255.646 217.198 255.399 216.772C254.506 216.042 253.949 215.927 252.819 215.795C251.08 215.58 249.651 215.018 248.107 214.235C247.671 212.838 247.313 212.108 248.002 210.758L248.164 210.422C248.27 209.975 248.411 209.492 248.438 209.035C248.49 208.137 247.692 207.322 247.177 206.65L247.235 205.473L247.445 205.431L248.201 205.395C249.199 202.905 246.893 201.923 246.951 199.611C246.977 198.776 246.825 198.125 246.599 197.332C246.489 196.255 246.42 194.91 245.69 194.07L246.1 193.891C246.41 192.594 246.184 190.96 245.895 189.673C246.084 188.549 245.942 187.194 245.947 186.038C246.956 185.975 247.981 186.022 248.995 186.038L250.182 185.954L250.177 185.965Z" fill="#DDE9F7"/>
<path d="M248.001 210.758C249.163 210.71 249.861 210.936 250.859 211.514C251.695 211.766 252.267 212.617 252.656 213.363C252.977 213.983 253.129 214.508 253.161 215.217L252.819 215.8C251.08 215.585 249.651 215.023 248.107 214.24C247.67 212.843 247.313 212.113 248.001 210.763V210.758Z" fill="#FDFDFD"/>
<path d="M247.439 205.431L248.196 205.395C249.246 206.682 250.612 209.833 250.859 211.509C249.861 210.931 249.162 210.705 248.001 210.753L248.164 210.416C248.269 209.97 248.411 209.487 248.437 209.03C248.49 208.131 247.691 207.317 247.177 206.645L247.234 205.468L247.444 205.426L247.439 205.431Z" fill="#253B79"/>
<path d="M242.511 171.094C252.168 174.661 256.455 178.164 262.975 185.965H251.49H250.177C247.954 180.927 245.606 175.659 242.511 171.094Z" fill="#253B79"/>
<path d="M260.91 148.659C262.969 149.374 265.465 150.813 266.946 152.42C271.921 157.81 263.61 161.697 262.743 165.316C261.918 168.757 267.808 171.525 267.487 175.543C267.335 177.487 265.922 179.026 264.556 180.271L261.771 181.925C262.396 180.912 263.069 179.887 263.568 178.81C266.4 172.659 260.374 172.381 258.798 167.801C257.101 162.879 261.755 161.298 263.484 157.647C264.986 154.48 261.924 151.706 260.967 148.88C260.946 148.807 260.92 148.738 260.899 148.665L260.91 148.659Z" fill="#FDFDFD"/>
<path d="M273.204 150.382C274.423 150.692 275.631 151.706 276.461 152.631C277.648 153.965 278.904 155.861 278.767 157.731C278.594 160.016 276.629 161.471 275.006 162.81C267.897 168.667 277.039 170.401 276.267 175.942C275.999 177.86 274.564 179.162 273.151 180.318C272.563 180.602 272.174 180.812 271.502 180.838C271.438 179.835 272.936 178.527 273.288 177.466C274.444 173.994 270.398 171.162 269.048 168.394C266.122 162.385 273.965 161.529 275.169 157.547C275.925 155.036 274.396 152.494 273.209 150.388L273.204 150.382Z" fill="#FDFDFD"/>
<path d="M193.82 168.956C194.86 168.867 197.004 168.425 197.923 168.888C203.513 182.188 208.814 195.162 211.94 209.297L209.56 210.984C213.8 215.779 217.856 220.733 221.712 225.838L223.798 229.074C221.549 232.215 218.917 235.057 216.458 238.035L216.132 238.729C217.467 246.309 217.724 254.387 218.292 262.067C218.728 267.997 219.542 274.327 219.353 280.257L219.374 281.029C219.884 283.866 219.805 286.918 219.899 289.786C220.115 295.622 220.209 301.463 220.183 307.304C218.392 307.335 215.397 307.761 213.8 306.989C212.618 308.559 211.709 309.426 209.902 310.298L209.928 314.222C207.642 314.148 202.841 314.863 200.991 313.739L199.231 314.069C195.722 314.29 192.076 314.112 188.55 314.112C183.88 314.112 178.847 314.484 174.255 313.712C172.579 314.558 160.532 313.922 157.748 313.954C158.326 308.79 159.329 303.622 160.123 298.484C160.806 294.072 161.273 289.623 161.993 285.216L161.473 284.26C160.664 284.249 159.876 284.197 159.072 284.066C155.205 283.414 151.927 281.14 149.694 277.972C147.288 274.548 146.116 270.34 145.575 266.238C143.668 251.729 148.076 226.994 150.687 212.15L150.929 211.167C151.049 209.124 151.596 206.97 152.016 204.953C153.603 197.321 155.573 189.184 160.464 182.923C168.318 172.864 181.006 170.427 192.89 168.998L193.825 168.951L193.82 168.956Z" fill="#253B79"/>
<path d="M216.458 238.036L216.132 238.729C217.467 246.309 217.724 254.388 218.292 262.067C218.728 267.998 219.542 274.327 219.353 280.258L219.374 281.03C219.883 283.866 219.805 286.918 219.899 289.786C220.115 295.622 220.209 301.463 220.183 307.304C218.391 307.336 215.397 307.761 213.8 306.989C212.618 308.56 211.709 309.426 209.901 310.298L209.928 314.222C207.642 314.149 202.84 314.863 200.991 313.739L199.231 314.07C195.722 314.29 192.076 314.112 188.55 314.112C183.88 314.112 178.847 314.485 174.255 313.713C172.579 314.558 160.532 313.923 157.748 313.954C158.326 308.791 159.329 303.622 160.122 298.485C160.805 294.072 161.273 289.623 161.993 285.216L161.473 284.26C174.665 282.963 183.265 274.353 191.981 265.271C196.804 260.071 201.569 254.813 206.271 249.503C209.623 245.673 212.807 241.576 216.463 238.036H216.458Z" fill="#253B79"/>
<path d="M160.779 306.505L195.065 306.49C201.054 306.49 207.164 306.253 213.138 306.574C213.616 306.6 213.379 306.521 213.8 306.989C212.618 308.559 211.709 309.426 209.901 310.298L209.928 314.222C207.642 314.148 202.841 314.863 200.991 313.739L199.231 314.069C195.722 314.29 192.076 314.112 188.55 314.112C183.88 314.112 178.847 314.484 174.255 313.712C169.091 312.084 164.572 310.571 160.79 306.511L160.779 306.505Z" fill="#FDFDFD"/>
<path d="M209.896 310.298L209.923 314.222C207.637 314.149 202.835 314.863 200.986 313.739C204.159 312.862 206.965 311.806 209.896 310.298Z" fill="#253B79"/>
<path d="M216.133 238.729C217.467 246.309 217.724 254.387 218.292 262.067C218.728 267.997 219.542 274.327 219.353 280.257C217.945 277.526 216.022 274.905 214.294 272.362C213.432 270.12 211.814 267.808 210.632 265.691C208.368 261.736 206.287 257.676 204.396 253.531C207.853 249.686 214 243.273 216.133 238.729Z" fill="#253B79"/>
<path d="M216.458 238.036L216.132 238.729C213.994 243.278 207.853 249.686 204.396 253.531C206.287 257.676 208.367 261.731 210.632 265.692C211.814 267.803 213.427 270.12 214.294 272.363L214.541 273.681C214.168 273.534 213.821 273.376 213.469 273.193C209.781 267.183 206.476 260.854 203.439 254.487C200.019 258.49 196.394 262.325 192.827 266.196C183.696 275.635 175.705 283.824 161.988 285.221L161.468 284.265C174.66 282.968 183.26 274.359 191.976 265.277C196.799 260.076 201.564 254.818 206.266 249.508C209.618 245.679 212.802 241.581 216.458 238.041V238.036Z" fill="#7B89AC"/>
<path d="M214.288 272.363C216.017 274.905 217.939 277.531 219.347 280.258L219.368 281.03C216.82 279.228 215.081 275.814 213.458 273.193C213.81 273.382 214.162 273.534 214.53 273.681L214.283 272.363H214.288Z" fill="#7B89AC"/>
<path d="M196.168 218.569C197.975 217.072 206.513 209.639 208.246 209.518C208.394 210.107 208.346 210.285 207.968 210.789C206.923 212.176 203.592 214.046 202.047 215.27C195.911 220.124 190.006 225.345 183.712 229.994C183.512 229.253 183.848 228.906 184.163 228.234C185.608 225.235 186.254 214.356 187.458 212.612C187.505 212.67 187.563 212.728 187.599 212.796C188.519 214.351 186.018 225.03 185.472 227.199C188.645 224.568 191.855 221.978 195.096 219.43L194.86 219.173C192.317 216.389 191.902 214.535 192.055 210.879C192.343 211.819 192.428 212.68 192.491 213.658C192.223 212.917 192.428 211.777 192.69 211.042C192.743 210.889 192.806 210.737 192.864 210.59C193.111 214.361 193.421 215.895 196.179 218.579L196.168 218.569Z" fill="#7B89AC"/>
<path d="M192.885 169.003L193.82 168.956C193.783 172.985 194.203 179.829 193.494 183.538L193.352 188.386L192.943 203.871C192.89 206.093 193.006 208.378 192.859 210.584C192.801 210.737 192.743 210.889 192.685 211.036C192.422 211.777 192.218 212.917 192.485 213.652C192.422 212.675 192.344 211.808 192.049 210.873C191.803 203.068 191.955 195.026 192.512 187.236L192.58 183.385C192.549 179.95 193.689 171.771 192.88 169.003H192.885Z" fill="#9DA7C0"/>
<path d="M183.712 229.994C182.771 231.38 174.933 237.426 173.12 238.976C171.239 240.594 169.364 242.227 167.593 243.966C165.56 245.957 163.658 248.189 161.315 249.823L161 249.686C164.163 243.977 178.773 232.536 184.158 228.229C183.848 228.906 183.507 229.253 183.707 229.988L183.712 229.994Z" fill="#7B89AC"/>
<path d="M215.376 102.23C228.689 98.2641 239.774 104.678 253.465 100.47C254.863 104.914 255.619 109.39 256.817 113.86C257.301 121.229 257.789 128.546 257.49 135.937C256.849 142.876 255.556 151.417 249.867 156.181C246.063 159.37 241.103 160.147 236.307 160.504C236.28 162.648 236.275 164.791 236.223 166.929L236.265 167.617L237.568 169.65C239.065 169.755 240.247 170.527 241.671 170.768L242.511 171.099C245.606 175.664 247.954 180.932 250.176 185.97L248.989 186.054C247.975 186.038 246.951 185.991 245.942 186.054C245.937 187.21 246.079 188.565 245.889 189.689C246.178 190.976 246.404 192.609 246.094 193.907L245.685 194.085C246.415 194.921 246.483 196.271 246.593 197.347C246.819 198.141 246.972 198.797 246.945 199.627C246.882 201.933 249.194 202.921 248.196 205.41L247.439 205.447L247.229 205.489L247.171 206.666C247.686 207.338 248.49 208.152 248.432 209.051C248.406 209.508 248.264 209.991 248.159 210.437L247.996 210.774C247.308 212.129 247.665 212.859 248.101 214.251L247.975 214.96C247.471 215.769 247.003 216.473 246.32 217.145C241.471 220.507 235.997 221.831 230.244 222.771C228.169 223.112 225.894 223.312 223.945 224.116C223.062 224.483 222.384 225.198 221.712 225.86C217.856 220.754 213.8 215.8 209.56 211.005L211.94 209.319C208.814 195.183 203.513 182.209 197.923 168.909C199.988 168.279 202.483 168.131 204.637 167.795C205.215 167.538 205.961 167.265 206.371 166.766C208.336 164.344 208.399 151.533 208.331 147.94C207.721 147.362 207.044 146.947 206.34 146.5C207.7 145.896 208.93 145.166 210.201 144.389C212.954 141.852 214.908 138.669 215.497 134.934C216.306 129.802 214.267 125.311 211.378 121.235C214.787 115.499 216.484 108.896 215.381 102.256L215.376 102.23Z" fill="#FA9D8C"/>
<path d="M211.935 209.297C214.903 206.718 216.947 203.525 219.232 200.383C223.22 194.905 228.846 193.702 234.888 191.49C236.307 190.97 237.594 190.125 239.002 189.626C240.363 189.148 241.208 189.452 242.459 190.035C242.086 191.396 239.585 193.045 238.513 194.08C240.599 194.033 243.93 194.947 245.685 194.08C246.415 194.915 246.483 196.265 246.593 197.342C246.819 198.135 246.972 198.792 246.945 199.622C246.882 201.928 249.194 202.915 248.196 205.405L247.439 205.442L247.229 205.484L247.171 206.66C247.686 207.333 248.49 208.147 248.432 209.045C248.406 209.502 248.264 209.985 248.159 210.432L247.996 210.768C247.308 212.123 247.665 212.854 248.101 214.245L247.975 214.955C247.471 215.764 247.003 216.467 246.32 217.14C241.471 220.502 235.997 221.825 230.244 222.766C228.169 223.107 225.894 223.307 223.945 224.11C223.062 224.478 222.384 225.192 221.712 225.854C217.856 220.748 213.8 215.795 209.56 210.999L211.94 209.313L211.935 209.297Z" fill="#FA9D8C"/>
<path d="M246.594 197.337C246.82 198.13 246.972 198.787 246.946 199.617C246.883 201.923 249.194 202.91 248.196 205.4L247.44 205.437C247.713 204.712 248.086 203.856 247.87 203.078C247.571 201.965 246.268 201.413 245.338 200.883C243.872 201.15 240.415 202.343 239.207 201.734L239.128 201.219C240.815 199.596 244.177 201.135 245.963 199.533C246.63 198.934 246.52 198.162 246.588 197.347L246.594 197.337Z" fill="#726371"/>
<path d="M248.159 210.422L247.996 210.758C247.308 212.113 247.665 212.843 248.101 214.235L247.975 214.944L246.972 212.523C245.532 212.297 243.373 214.267 241.671 214.214C241.261 214.204 241.235 214.004 240.993 213.715C242.059 211.992 246.184 212.187 247.812 210.747C247.933 210.642 248.043 210.527 248.159 210.416V210.422Z" fill="#726371"/>
<path d="M247.229 205.473L247.171 206.65C245.79 207.27 242.501 208.194 240.993 208.163C240.463 208.152 240.431 208.105 240.074 207.695C240.967 206.445 245.727 205.82 247.229 205.473Z" fill="#99646C"/>
<path d="M197.918 168.888C199.983 168.257 202.478 168.11 204.632 167.774C211.367 176.362 220.32 183.012 231.437 184.41C232.561 184.552 233.659 184.457 234.562 183.695C235.787 182.655 235.918 180.848 235.976 179.357C236.133 175.443 236.055 171.535 236.259 167.611L237.562 169.644C239.06 169.749 240.242 170.521 241.666 170.763L242.506 171.094C245.601 175.659 247.949 180.927 250.171 185.965L248.984 186.049C247.97 186.033 246.945 185.986 245.937 186.049C245.932 187.204 246.073 188.559 245.884 189.684C246.173 190.97 246.399 192.604 246.089 193.902L245.679 194.08C243.925 194.947 240.594 194.033 238.508 194.08C239.58 193.045 242.081 191.396 242.454 190.035C241.203 189.452 240.363 189.148 238.997 189.626C237.594 190.125 236.307 190.97 234.883 191.49C228.836 193.702 223.214 194.905 219.227 200.383C216.942 203.525 214.898 206.724 211.93 209.297C208.804 195.162 203.503 182.188 197.913 168.888H197.918Z" fill="#FDFDFD"/>
<path d="M237.568 169.65C239.065 169.755 240.247 170.527 241.671 170.768L242.511 171.099C245.606 175.664 247.954 180.933 250.177 185.97L248.989 186.054C247.975 186.038 246.951 185.991 245.942 186.054C245.937 187.21 246.079 188.565 245.89 189.689C245.007 190.015 244.229 190.277 243.289 190.377L242.9 190.046C241.56 183.233 240.231 176.095 237.568 169.655V169.65Z" fill="#253B79"/>
<path d="M241.671 170.769L242.511 171.099C245.606 175.664 247.954 180.933 250.176 185.97L248.989 186.054C246.483 181.011 243.935 175.927 241.671 170.774V170.769Z" fill="#7B89AC"/>
<path d="M236.223 166.929C233.701 166.209 231.127 165.642 228.684 164.686C222.989 162.458 218.092 158.482 215.602 152.809C221.901 158.051 228.121 160.394 236.312 160.51C236.286 162.653 236.28 164.796 236.228 166.934L236.223 166.929Z" fill="#99646C"/>
<path d="M222.915 150.902C224.338 149.652 225.972 148.869 227.916 149.001C229.54 149.111 231.121 149.946 232.161 151.191C232.865 152.037 233.48 153.329 233.322 154.469C233.212 155.288 232.886 155.982 232.177 156.454C230.843 157.337 228.778 157.032 227.328 156.638C225.479 156.139 224.092 155.199 222.731 153.88C222.615 152.809 222.689 151.958 222.915 150.907V150.902Z" fill="#253B79"/>
<path d="M210.196 144.368C213.742 147.845 218.276 149.442 222.92 150.902C222.7 151.953 222.621 152.804 222.736 153.876C219.337 153.324 215.507 151.696 212.486 150.088C211.126 149.363 209.781 148.434 208.331 147.919C207.721 147.341 207.044 146.926 206.34 146.48C207.7 145.876 208.93 145.145 210.201 144.368H210.196Z" fill="#DDE9F7"/>
<path d="M240.331 116.706L240.962 116.964C242.685 119.496 246.562 132.475 246.672 135.517C246.704 136.441 246.646 137.087 245.953 137.754C244.744 138.915 242.517 138.695 240.972 138.611C240.363 138.248 240.168 138.211 239.869 137.581C240.457 137.119 242.669 137.271 243.536 137.119C244.377 136.966 244.781 136.73 245.28 136.047C245.627 130.595 241.324 122.726 240.379 116.995C240.363 116.901 240.352 116.806 240.331 116.712V116.706Z" fill="#99646C"/>
<path d="M229.718 121.818C230.622 121.891 231.273 122.038 231.904 122.747C232.708 123.661 232.981 124.901 232.87 126.088C232.718 127.748 232.187 128.636 230.927 129.691C230.238 129.644 229.797 129.534 229.235 129.103C228.326 128.41 228.011 127.112 228.006 126.03C227.995 124.25 228.473 123.062 229.718 121.812V121.818Z" fill="#253B79"/>
<path d="M249.152 121.523C249.677 121.523 250.255 121.539 250.733 121.791C251.584 122.243 252.136 123.178 252.315 124.103C252.677 125.973 252.057 127.438 250.991 128.914C250.218 129.045 249.667 129.166 248.968 128.678C248.075 128.053 247.728 126.934 247.67 125.894C247.571 124.066 247.912 122.847 249.157 121.518L249.152 121.523Z" fill="#253B79"/>
<path d="M230.638 113.282C231.689 113.203 232.96 113.135 233.806 113.87C234.305 114.306 234.352 114.369 234.389 114.994C233.065 116.47 229.619 116.36 227.712 117.069C227.606 117.111 227.501 117.153 227.391 117.19C226.803 117.468 226.172 117.81 225.557 117.999C224.98 118.177 224.643 118.02 224.149 117.736C224.102 117.006 224.244 116.68 224.712 116.108C226.214 114.248 228.389 113.644 230.638 113.277V113.282Z" fill="#253B79"/>
<path d="M247.712 112.767C248.69 112.83 249.614 112.914 250.56 113.171C252.094 113.586 254.238 114.59 254.873 116.186C255.162 116.911 255.11 117.053 254.821 117.715C254.206 117.92 254.238 117.92 253.649 117.647C251.238 116.234 246.168 115.698 245.164 114.763C244.86 114.485 244.954 114.469 244.907 114.022C245.674 113.15 246.62 112.977 247.707 112.767H247.712Z" fill="#253B79"/>
<path d="M232.051 141.962C233.685 142.041 236.307 145.156 238.393 145.765C240.373 146.338 243.599 144.925 245.059 145.518L245.296 146.29C244.807 146.553 244.292 146.805 243.762 146.968C241.161 147.777 237.993 147.231 235.629 145.954C233.995 145.072 232.556 143.785 232.057 141.962H232.051Z" fill="#99646C"/>
<path d="M125.616 290.028C125.916 277.92 125.574 265.692 125.574 253.568C125.574 246.503 125.322 239.338 126.42 232.336C127.25 227.047 128.769 220.838 132.609 216.867C137.416 211.893 144.367 211.225 150.929 211.168L150.687 212.15C148.076 226.994 143.668 251.73 145.575 266.238C146.116 270.34 147.283 274.553 149.694 277.973C151.927 281.14 155.205 283.409 159.072 284.066C159.871 284.202 160.664 284.255 161.473 284.26L161.993 285.216C161.273 289.623 160.806 294.072 160.123 298.485C159.329 303.617 158.326 308.791 157.748 313.954C154.428 313.86 151.092 313.944 147.771 313.97L125.742 313.917C125.8 305.959 125.763 297.991 125.627 290.033L125.616 290.028Z" fill="#2485F9"/>
<path d="M236.774 75.8244L237.41 76.2919C240.331 75.0995 243.604 72.2157 246.961 73.5237C247.539 74.1435 247.775 74.5637 247.733 75.4357C247.665 77.0062 246.977 78.5033 246.32 79.911C250.707 78.2879 256.018 76.4337 260.584 78.5348C262.659 79.4908 264.283 81.1927 265.013 83.3726C265.974 86.2564 265.328 89.4396 263.899 92.0502C262.57 94.4718 260.489 96.5834 258.157 98.0542C258.75 103.359 259.066 108.849 256.817 113.86C255.619 109.39 254.863 104.92 253.465 100.47C239.769 104.678 228.689 98.2643 215.376 102.23C216.479 108.87 214.782 115.472 211.372 121.208C214.262 125.285 216.3 129.776 215.491 134.908C214.903 138.642 212.949 141.831 210.196 144.363C208.929 145.135 207.695 145.87 206.334 146.474C205.441 146.69 204.495 146.979 203.571 146.973C202.967 146.973 203.213 147.057 202.767 146.611L202.415 146.931C200.098 147.22 197.161 145.876 195.138 144.804L194.886 144.615C191.524 142.025 189.559 138.411 189.049 134.22C188.466 129.429 190 125.106 192.927 121.35C193.746 120.646 194.534 119.927 195.307 119.176C196.173 118.818 197.03 118.451 197.886 118.073C199.394 116.901 202.168 117.011 204.023 117.096C204.474 108.024 207.795 99.3253 213.5 92.2551C218.591 85.894 228.263 76.7541 236.769 75.8191L236.774 75.8244Z" fill="#253B79"/>
<path d="M195.307 119.181C196.174 118.823 197.03 118.456 197.886 118.077C198.17 119.543 198.454 120.998 198.627 122.485C201.317 122.521 203.644 122.684 205.672 124.707C207.301 126.33 208.021 128.552 207.979 130.821C207.931 133.169 207.054 135.317 205.352 136.94C204.096 138.138 202.688 138.632 201.07 139.141L202.762 146.616L202.41 146.936C200.093 147.225 197.156 145.88 195.133 144.809L194.881 144.62C191.519 142.03 189.554 138.416 189.044 134.225C188.461 129.434 189.995 125.111 192.922 121.355C193.741 120.651 194.529 119.932 195.301 119.181H195.307Z" fill="#FDFDFD"/>
<path d="M195.138 144.809C197.156 145.881 200.092 147.225 202.415 146.936L202.767 146.616C203.213 147.063 202.966 146.978 203.57 146.978C204.495 146.978 205.441 146.695 206.334 146.479C207.038 146.926 207.716 147.341 208.325 147.919C208.393 151.512 208.336 164.328 206.365 166.745C205.956 167.249 205.21 167.517 204.632 167.774C202.478 168.11 199.977 168.252 197.917 168.888C196.998 168.426 194.86 168.862 193.814 168.956L192.879 169.003C181 170.432 168.313 172.869 160.453 182.929C155.562 189.19 153.597 197.326 152.005 204.959C151.585 206.971 151.039 209.124 150.918 211.173C144.356 211.225 137.405 211.898 132.598 216.872C128.758 220.843 127.239 227.052 126.409 232.342C125.311 239.349 125.563 246.508 125.563 253.573C125.563 265.697 125.91 277.925 125.605 290.033C125.206 289.686 124.97 289.355 124.786 288.856C123.53 285.437 123.225 281.124 122.742 277.51C119.548 253.563 123.683 224.961 133.449 202.863C142.974 181.258 159.245 163.315 179.818 151.716C184.746 148.99 189.879 146.842 195.122 144.814L195.138 144.809Z" fill="#97C1F9"/>
<path d="M87.7945 277.925L89.3916 278.072L89.6806 277.999L90.9993 277.952C95.3966 278.65 105.778 278.099 110.737 277.936C110.091 283.246 109.382 288.552 108.62 293.847C108.032 298.059 107.748 302.661 106.272 306.663C105.594 308.512 104.675 310.041 103.093 311.244C101.375 312.552 98.7222 313.755 96.5787 314.086C91.2042 314.164 85.8296 314.175 80.4498 314.117C78.7108 312.783 76.394 312.342 74.6182 310.971C73.1419 309.826 72.3906 308.402 71.797 306.663C70.3102 302.34 70.1946 297.298 69.6324 292.759C69.023 287.822 68.298 282.894 67.7358 277.952C74.366 277.904 81.2064 278.482 87.7998 277.925H87.7945Z" fill="#FDFDFD"/>
<path d="M440.035 153.917C444.727 160.793 448.562 168.373 452.066 175.905C462.237 197.815 468.831 220.517 469.109 244.78C469.162 249.796 469.198 255.175 468.295 260.102C468.247 260.36 468.195 260.612 468.127 260.864C466.871 258.421 466.025 252.171 465.142 249.124C463.535 243.582 461.344 238.088 459.09 232.783C456.416 226.653 453.442 220.659 450.175 214.823C443.187 202.548 436.142 192.856 436.573 177.97C436.809 169.923 438.59 161.812 440.03 153.907L440.035 153.917Z" fill="#DDE9F7"/>
<path d="M87.6005 237.452C85.809 237.247 83.9124 237.1 82.2102 236.481C76.4784 234.39 77.2612 229.405 74.9601 224.93C70.1004 215.48 58.0589 219.766 50.6827 217.25C49.1065 216.709 47.7091 215.701 46.942 214.193C45.3239 210.999 46.879 207.17 45.6969 203.856C44.1365 199.464 40.0124 196.013 38.0475 191.758C36.4083 188.213 35.7779 183.202 37.2857 179.519C37.8111 178.238 38.6464 177.082 40.0019 176.62C41.31 176.173 42.8179 176.478 44.0735 176.945C51.4812 179.693 52.5845 188.465 57.1027 193.781C58.2165 195.094 59.3933 195.719 60.9274 196.397C63.3021 195.908 65.9289 194.752 68.3772 195.341C79.0264 197.909 82.5832 226.327 85.9876 228.218C86.6706 230.088 86.9017 232.205 87.1066 234.18C86.6023 233.791 86.1347 233.381 85.6619 232.945C85.7091 233.55 85.6093 233.25 86.0034 233.802C86.8965 235.052 87.4061 235.892 87.59 237.452H87.6005Z" fill="#97C1F9"/>
<path d="M86.3813 221.957C86.4128 221.789 86.4443 221.626 86.4706 221.458C87.1273 217.571 86.3445 213.442 87.017 209.466C87.7735 204.995 89.8698 200.877 90.6368 196.46C90.8522 195.236 90.9993 193.97 90.9993 192.725C90.9993 190.629 90.0904 188.481 89.4757 186.5C87.2324 179.299 84.5845 172.192 85.3673 164.502C85.5565 162.626 85.9768 160.436 87.6317 159.286C88.5458 158.65 89.6386 158.561 90.7051 158.781C92.98 159.254 94.8293 161.203 95.9903 163.125C100.025 169.786 97.7976 178.527 96.3476 185.586C95.9641 187.446 95.3284 189.82 95.5648 191.722C95.6331 192.294 95.6751 192.536 96.2478 192.72C99.4525 190.261 99.3264 180.617 103.792 179.099C104.638 179.236 105.137 179.441 105.673 180.139C106.33 181.001 106.629 182.067 106.682 183.133C106.829 185.996 105.978 188.89 105.71 191.732C105.421 194.81 105.694 198.004 105.174 201.056C103.839 208.825 97.598 215.16 94.162 222.114C91.924 226.647 90.7839 231.322 89.0554 236.008C86.2132 223.8 96.6208 208.914 95.3441 202.558L95.0499 202.574C94.6349 204.717 94.2724 206.923 93.6472 209.019C91.6035 215.848 88.4775 222.13 88.1518 229.405C87.4898 226.931 86.8594 224.478 86.3813 221.957Z" fill="#97C1F9"/>
<path d="M69.7221 187.551C66.0812 183.165 62.0149 180.67 57.4757 177.366C47.1836 169.875 48.9857 165.043 49.138 153.907C49.1906 150.183 48.6704 146.348 48.9857 142.645C49.138 140.838 49.3009 138.637 50.7772 137.408C51.9382 136.447 53.3147 136.163 54.7963 136.347C58.4896 136.809 61.7101 139.53 63.8431 142.451C65.2879 144.431 66.5698 146.674 66.1758 149.216C65.7082 152.21 61.6576 156.029 63.6225 158.939C65.0778 161.098 68.293 161.623 70.1739 163.372C75.6377 168.462 75.1964 176.016 75.4171 182.86C75.5064 185.602 75.8006 188.554 75.4539 191.27C72.5801 184.431 67.6679 174.913 63.3073 168.967C63.3335 169.061 63.3651 169.161 63.3913 169.256C65.062 175.238 69.3543 180.433 71.7185 186.206C72.848 188.491 73.6256 190.96 74.8339 193.192L74.6343 193.655C72.7745 191.916 71.2561 189.584 69.7221 187.561V187.551Z" fill="#97C1F9"/>
<path d="M89.6807 277.999C90.0432 273.366 91.4091 268.523 92.3653 263.958C93.6315 257.912 94.5719 251.425 96.6313 245.605C97.4089 243.414 98.5069 240.736 100.267 239.149C101.775 237.794 103.661 237.174 105.526 236.497C107.428 235.808 109.393 235.131 110.916 233.749C113.963 230.997 114.925 224.63 115.277 220.743C115.503 218.233 115.277 215.076 116.438 212.812L116.848 212.528C117.672 212.985 117.972 213.852 118.235 214.739C119.212 218.017 120.231 229.783 119.937 233.114C119.795 234.774 119.411 236.46 118.602 237.925C115.834 242.963 106.34 242.453 107.953 249.045C109.093 253.71 114.305 258.128 111.184 263.281C109.004 266.884 102.652 267.036 99.2634 269.463C96.0219 271.785 93.8942 275.283 90.9889 277.946L89.6702 277.994L89.6807 277.999Z" fill="#97C1F9"/>
<path d="M65.8707 243.567C63.0442 240.541 55.9307 235.63 55.4316 231.501C55.3213 230.577 55.5524 229.416 56.2249 228.728C56.6767 228.26 57.1653 228.029 57.8168 227.992C61.3998 227.772 66.207 232.011 68.6499 234.217C76.6461 241.439 86.8383 259.083 87.3426 269.81C84.0486 263.622 80.8648 258.201 75.879 253.185C74.7863 252.087 73.0578 250.369 71.5815 249.833C71.5132 249.812 71.4397 249.797 71.3661 249.781C72.8844 251.43 74.6759 252.791 76.2048 254.44C81.2799 259.913 87.7734 268.728 87.4792 276.554C82.3884 263.401 70.8985 262.64 60.2545 256.704C58.526 255.743 56.9289 254.724 56.414 252.701C55.9937 251.036 56.3037 249.051 57.2757 247.627C59.1512 244.875 62.8551 244.239 65.876 243.577L65.8707 243.567Z" fill="#97C1F9"/>
<path d="M223.362 73.3763C225.279 72.1734 230.302 72.5621 232.503 73.0717C234.037 73.4288 235.86 74.1275 236.659 75.5772C236.701 75.656 236.732 75.7401 236.769 75.8241C228.269 76.7591 218.591 85.8937 213.5 92.2601C207.79 99.3303 204.474 108.024 204.023 117.101C202.168 117.016 199.394 116.906 197.886 118.078C197.03 118.45 196.168 118.818 195.307 119.181C194.939 112.499 196.279 105.072 198.716 98.8523C203.397 86.918 211.693 78.4925 223.362 73.3816V73.3763Z" fill="#DDE9F7"/>
<path d="M192.927 121.355C190.295 114.364 188.477 107.126 189.065 99.5878C189.628 92.3757 192.375 85.7099 197.97 80.9666C204.222 75.6666 215.25 72.683 223.362 73.3816C211.693 78.4926 203.403 86.9233 198.716 98.8524C196.273 105.072 194.934 112.499 195.307 119.181C194.534 119.932 193.741 120.651 192.927 121.355Z" fill="#253B79"/>
<path d="M63.302 168.961C67.6678 174.908 72.5801 184.426 75.4486 191.265L75.5274 191.853C80.261 201.355 83.6023 211.74 86.3816 221.951C86.8596 224.473 87.4901 226.926 88.1521 229.4C88.4778 222.125 91.6037 215.842 93.6474 209.014C94.2726 206.918 94.6351 204.712 95.0502 202.569L95.3444 202.553C96.6158 208.914 86.2134 223.795 89.0557 236.003C89.9278 242.427 90.5162 248.898 90.3901 255.385C90.3061 259.861 89.8122 264.305 89.6494 268.77C89.539 271.811 89.9488 275.094 89.3919 278.062L87.7948 277.915L87.4743 276.538C87.7685 268.707 81.2802 259.898 76.1999 254.424C74.671 252.775 72.8795 251.414 71.3612 249.765C71.4347 249.786 71.5083 249.797 71.5766 249.818C73.0529 250.353 74.7814 252.071 75.8741 253.169C80.8599 258.185 84.0437 263.611 87.3377 269.794L87.5216 270.009L87.7318 269.941C89.0189 258.852 88.9664 248.525 87.5952 237.442C87.4113 235.887 86.9017 235.041 86.0085 233.791C85.6145 233.24 85.7143 233.539 85.6671 232.935C86.1346 233.371 86.6022 233.775 87.1118 234.169C86.9069 232.194 86.6758 230.078 85.9928 228.208C84.4272 218.122 79.4256 202.521 74.6343 193.639L74.8339 193.177C73.6255 190.944 72.848 188.475 71.7184 186.191C69.3543 180.418 65.062 175.223 63.3913 169.24C63.365 169.145 63.3335 169.045 63.3073 168.951L63.302 168.961Z" fill="#253B79"/>
<path d="M468.106 262.078C468.195 266.863 468.495 271.706 468.326 276.486C467.869 289.602 464.481 301.794 460.236 314.117L458.318 314.127C459.406 308.365 461.187 302.619 462.574 296.919C465.279 285.783 467.586 273.502 468.101 262.078H468.106Z" fill="#DDE9F7"/>
<path d="M132.976 57.6129C137.442 57.3187 171.265 57.1244 173.225 58.0909C174.465 58.7002 175.442 59.9188 175.884 61.2163C176.514 63.0705 176.588 81.9123 176.351 84.9799C176.283 85.8886 176.094 86.7763 175.684 87.5958C174.743 89.4553 173.141 90.1276 171.276 90.7474C171.602 94.0252 171.586 97.387 171.765 100.675C168.087 98.7107 162.949 93.5524 159.597 90.6319C154.159 90.5426 134.369 91.4723 130.896 89.865C129.651 89.2872 129.131 88.3942 128.71 87.1335C127.649 83.9503 127.371 63.0442 128.921 60.3233C129.808 58.7632 131.301 58.0383 132.976 57.6076V57.6129Z" fill="#FDFDFD"/>
<path d="M140.894 71.0861C142.68 70.9863 144.225 72.3205 144.388 74.1012C144.55 75.8819 143.274 77.4735 141.498 77.6994C140.295 77.8517 139.097 77.3369 138.388 76.3494C137.673 75.3671 137.558 74.0697 138.078 72.9718C138.598 71.874 139.68 71.1491 140.894 71.0808V71.0861Z" fill="#BFDBF8"/>
<path d="M162.103 71.3491C163.217 70.9498 164.462 71.181 165.36 71.9531C166.259 72.7253 166.663 73.9229 166.432 75.0838C166.196 76.2447 165.355 77.1902 164.225 77.5526C162.523 78.1041 160.69 77.1849 160.107 75.4935C159.529 73.7969 160.417 71.9531 162.103 71.3438V71.3491Z" fill="#BFDBF8"/>
<path d="M151.029 71.354C152.148 70.9548 153.398 71.1912 154.296 71.9791C155.19 72.767 155.589 73.9752 155.331 75.136C155.074 76.2969 154.212 77.2319 153.067 77.5733C151.37 78.0776 149.573 77.1426 149.022 75.4564C148.47 73.7703 149.358 71.9528 151.029 71.354Z" fill="#BFDBF8"/>
<path d="M388.023 175.743C393.503 175.391 399.172 175.669 404.683 175.648C408.387 175.632 416.435 175.123 419.619 175.827C420.969 176.126 421.647 177.24 422.356 178.311C422.824 181.531 422.84 185.214 422.782 188.475C422.75 190.004 422.393 191.564 421.222 192.625C419.141 194.521 415.763 194.106 413.162 194.07L398.137 194.096C395.746 196.439 393.419 198.855 391.17 201.334C391.223 198.85 391.339 196.365 391.428 193.881C390.072 193.933 388.733 193.854 387.377 193.786C386.841 193.345 386.305 192.914 385.922 192.326C384.535 190.214 384.756 181.857 385.323 179.299C385.733 177.466 386.447 176.715 388.023 175.743Z" fill="#FDFDFD"/>
<path d="M393.844 182.713C394.706 182.356 395.694 182.487 396.429 183.06C397.17 183.632 397.538 184.562 397.401 185.486C397.265 186.411 396.639 187.188 395.767 187.525C394.443 188.034 392.962 187.383 392.436 186.069C391.911 184.756 392.536 183.259 393.844 182.718V182.713Z" fill="#BFDBF8"/>
<path d="M412.317 182.477C413.656 182.172 414.996 182.981 415.348 184.305C415.7 185.629 414.949 186.999 413.635 187.404C412.742 187.682 411.77 187.446 411.098 186.795C410.431 186.143 410.168 185.177 410.42 184.273C410.672 183.375 411.397 182.682 412.311 182.477H412.317Z" fill="#BFDBF8"/>
<path d="M402.807 182.713C404.068 182.151 405.544 182.697 406.138 183.942C406.732 185.187 406.217 186.679 404.982 187.299C404.157 187.714 403.18 187.651 402.413 187.131C401.651 186.611 401.231 185.723 401.31 184.809C401.394 183.89 401.967 183.091 402.807 182.713Z" fill="#BFDBF8"/>
<path d="M350.974 115.598C355.645 115.236 360.52 115.493 365.212 115.488C369.058 115.483 373.213 115.162 377.027 115.604C378.194 115.74 379.113 115.935 380.106 116.565C382.076 119.501 381.246 124.785 381.178 128.195C380.863 128.61 380.542 129.009 380.164 129.366C378.257 131.183 374.905 130.627 372.467 130.558L359.806 130.569C357.888 132.964 355.508 135.128 353.328 137.292C353.543 135.07 353.727 132.849 353.869 130.621C353.617 130.6 353.359 130.579 353.107 130.553C351.846 130.422 350.543 130.191 349.74 129.119C347.99 126.797 348.279 121.271 348.846 118.514C349.162 116.985 349.677 116.423 350.969 115.598H350.974Z" fill="#FDFDFD"/>
<path d="M60.6119 104.068C64.3105 103.853 87.4952 103.459 89.3392 104.688C90.1956 105.261 90.4845 106.264 90.5791 107.225C90.8365 109.773 91.4827 115.572 89.749 117.542C88.7928 118.629 87.5477 118.755 86.1817 118.86C86.208 120.567 86.3236 122.269 86.4234 123.971C86.4234 124.528 86.5232 124.864 86.2448 125.358C83.8859 123.688 81.7686 120.904 79.8405 118.724C74.5185 118.781 65.5924 119.422 60.6435 118.624C60.0866 118.251 59.4351 117.831 59.0621 117.258C57.6698 115.131 57.8275 109.027 58.4474 106.642C58.7889 105.334 59.5034 104.746 60.6119 104.058V104.068Z" fill="#FDFDFD"/>
</g>
<defs>
<clipPath id="clip0_4023_2495">
<rect width="469.13" height="353.371" fill="white"/>
</clipPath>
</defs>
</svg>
