<svg width="237" height="232" viewBox="0 0 237 232" fill="none" xmlns="http://www.w3.org/2000/svg">
<g clip-path="url(#clip0_4023_2455)">
<path d="M106.895 112.993C108.632 112.205 110.463 111.809 112.312 112.555C114.712 113.52 116.047 115.915 117.065 118.138C120.441 117.421 123.584 117.323 126.582 119.294C128.422 120.502 130.051 122.361 131.083 124.295C131.424 124.939 131.676 125.74 132.106 126.314L132.199 126.598C134.637 126.463 137.289 126.174 139.241 127.973C140.693 129.315 141.24 131.217 141.767 133.053L143.943 129.744L145.582 126.929L166.142 135.966C169.168 137.309 172.521 138.506 175.378 140.147L175.603 140.161C188.215 139.984 200.856 140.343 213.459 140.054C217.376 136.26 234.093 118.418 236.741 117.099C234.812 119.621 232.627 121.932 230.61 124.389C222.429 134.363 213.916 144.053 205.67 153.98C193.59 168.611 181.388 183.143 169.07 197.573C162.262 205.623 155.608 213.863 148.547 221.693C155.309 220.687 162.019 220.085 168.846 219.801C177.657 219.433 207.85 219.484 214.589 224.322C215.13 224.714 215.21 224.937 215.471 225.529C215.219 226.406 214.813 226.774 214.024 227.226C211.329 228.764 206.973 229.221 203.909 229.668C187.491 232.068 159.227 232.67 143.233 228.2L143.089 228.242C142.65 228.978 142.061 229.673 141.548 230.363C129.958 225.73 117.99 219.82 106.521 214.707L41.9277 186.033L45.3225 184.793C45.64 185.157 46.3078 185.213 46.728 185.451C49.7539 187.124 53.2514 188.387 56.422 189.818L74.806 198.319C93.6102 207.305 112.48 216.142 131.419 224.83C139.82 217.34 148.192 207.529 156.051 199.284C168.79 185.94 181.818 172.848 194.421 159.378C185.866 158.944 177.228 159.196 168.668 159.191C164.9 159.191 161.001 159.368 157.251 158.972L155.902 159.201L155.963 159.48C159.035 160.548 162.024 162.067 164.993 163.391C164.256 164.272 163.382 165.083 162.579 165.912C158.592 164.085 149.761 159.224 145.83 159.042C142.225 159.191 138.522 159.536 134.922 159.424C137.709 161.694 153.931 167.972 158.395 170L156.201 172.326C145.876 168.271 135.202 163.782 125.279 158.818L122.23 157.849C119.255 157.681 107.88 155.56 106.012 153.617L105.924 153.225C105.653 152.312 105.756 151.249 105.751 150.303C105.891 147.012 105.975 143.717 105.994 140.422C106.153 139.341 106.274 138.437 106.087 137.346C105.998 135.435 106.129 133.473 106.167 131.552L106.241 127.954L106.307 122.315L106.316 118.991C106.33 117.267 105.994 114.936 106.685 113.366L106.89 113.007L106.895 112.993Z" fill="#DCDDE0"/>
<path d="M106.895 112.993C108.632 112.205 110.463 111.809 112.312 112.555C114.712 113.52 116.047 115.915 117.065 118.138C120.441 117.421 123.584 117.323 126.582 119.294C128.422 120.502 130.051 122.361 131.083 124.295C131.424 124.939 131.676 125.74 132.106 126.314L132.199 126.598C128.352 130.564 124.532 134.568 120.754 138.6C119.05 140.403 117.023 142.184 115.58 144.179C113.955 142.836 112.312 141.876 110.346 141.098L109.921 140.874C108.595 140.58 107.353 140.464 105.999 140.417C106.157 139.336 106.279 138.432 106.092 137.341C106.003 135.43 106.134 133.468 106.171 131.548L106.246 127.95L106.311 122.31L106.321 118.987C106.335 117.262 105.999 114.932 106.69 113.361L106.895 113.002V112.993Z" fill="#FAD295"/>
<path d="M106.895 112.993C108.632 112.205 110.463 111.809 112.312 112.555C114.712 113.52 116.047 115.915 117.065 118.138C114.324 125.596 112.503 133.365 109.921 140.869C108.595 140.576 107.353 140.459 105.999 140.413C106.157 139.331 106.279 138.427 106.092 137.337C106.003 135.426 106.134 133.463 106.171 131.543L106.246 127.945L106.311 122.305L106.321 118.982C106.335 117.258 105.999 114.927 106.69 113.356L106.895 112.998V112.993Z" fill="#FBE5BC"/>
<path d="M132.199 126.593C134.637 126.458 137.289 126.169 139.241 127.968C140.693 129.311 141.239 131.212 141.767 133.049L140.273 134.26C138.951 134.894 137.649 135.57 136.364 136.288L131.312 139.453C130.355 140.003 129.369 140.534 128.436 141.126C126.446 142.408 124.345 143.629 122.435 145.013L119.138 146.919L118.247 147.348C117.406 146.234 116.524 145.199 115.585 144.169C117.028 142.175 119.054 140.394 120.759 138.59C124.536 134.554 128.351 130.555 132.204 126.589L132.199 126.593Z" fill="#F2B36E"/>
<path d="M143.943 129.744C148.837 131.632 153.632 133.837 158.442 135.934C161.519 137.276 164.825 138.502 167.753 140.147C162.075 140.175 156.378 140.511 150.705 140.474C148.057 140.455 145.423 140.082 142.776 140.003C139.797 139.91 136.766 140.152 133.787 140.292C132.923 140.096 132.129 139.784 131.312 139.458L136.364 136.293C137.649 135.58 138.951 134.904 140.273 134.265L141.767 133.054L143.943 129.744Z" fill="#FBFBFA"/>
<path d="M136.36 136.288C137.644 135.575 138.947 134.899 140.268 134.261C142.346 135.174 144.737 136.004 146.973 136.395C146.133 137.365 145.32 138.348 144.326 139.169C141.884 138.031 139.073 136.526 136.36 136.283V136.288Z" fill="#DCDDE0"/>
<path d="M128.436 141.126C129.369 140.534 130.355 140.003 131.312 139.453C132.134 139.779 132.923 140.091 133.787 140.287C134.156 140.394 134.856 140.492 135.104 140.772C141.473 144.524 150.112 147.623 157.064 150.522C161.949 152.559 166.749 154.908 171.741 156.675C170.798 157.434 169.784 158.171 168.93 159.019C156.033 153.426 142.953 148.122 130.187 142.249C129.58 142.063 128.959 141.494 128.436 141.126Z" fill="#C2C9D4"/>
<path d="M105.994 140.408C107.348 140.455 108.59 140.576 109.916 140.865L110.341 141.089C112.302 141.867 113.95 142.822 115.575 144.169C116.514 145.199 117.401 146.234 118.237 147.348C116.575 148.364 114.884 149.338 113.166 150.261L109.907 152.116C108.926 152.643 107.1 153.925 106.008 153.598L105.919 153.207C105.648 152.293 105.751 151.231 105.746 150.284C105.886 146.994 105.97 143.699 105.989 140.403L105.994 140.408Z" fill="#3D4445"/>
<path d="M105.994 140.408C107.348 140.455 108.59 140.576 109.916 140.865L110.341 141.089C108.847 142.603 107.642 150.513 105.919 153.211C105.648 152.298 105.751 151.235 105.746 150.289C105.886 146.998 105.97 143.703 105.989 140.408H105.994Z" fill="#6B7172"/>
<path d="M119.134 146.924L122.43 145.018C125.858 146.528 153.679 157.994 154.085 158.837C153.431 158.945 152.834 159.019 152.171 158.996C150.079 158.959 147.991 158.917 145.904 158.772C145.474 158.092 122.001 148.01 119.134 146.924Z" fill="#C2C9D4"/>
<path d="M113.171 150.266C118.233 152.76 129.071 156.339 133.016 159.098C130.434 159.052 127.857 158.558 125.274 158.809L122.225 157.84C119.251 157.672 107.876 155.551 106.008 153.608C107.1 153.934 108.931 152.648 109.907 152.126L113.166 150.271L113.171 150.266Z" fill="#C2C9D4"/>
<path d="M109.912 152.126C113.811 153.813 118.779 155.407 122.225 157.84C119.251 157.672 107.876 155.551 106.008 153.608C107.1 153.934 108.931 152.648 109.907 152.126H109.912Z" fill="#DCDDE0"/>
<path d="M175.378 140.147L175.603 140.161C178.404 141.154 181.192 142.739 183.886 144.011L181.799 146.15C179.955 145.381 169.28 141.364 168.696 140.217L175.378 140.147Z" fill="#C2C9D4"/>
<path d="M143.093 228.242C141.552 227.734 140.011 227.403 139.147 225.902C139.147 225.142 139.152 224.844 139.769 224.294C141.66 222.598 146.016 222.043 148.477 221.824L143.238 228.2L143.093 228.242Z" fill="#C2C9D4"/>
<path d="M159.833 23.015C163.107 24.7442 166.366 26.6225 169.747 28.1373L169.887 28.333C174.963 31.1202 179.814 34.2663 184.853 37.1047C186.861 35.3476 188.453 31.8986 189.84 29.6008H189.985C191.876 30.8033 197.783 35.3523 199.515 35.8883C198.231 38.6055 196.788 41.3927 195.056 43.849C187.001 57.8176 178.801 71.7023 170.461 85.5031C166.646 91.9118 162.495 98.2878 159.011 104.874C158.414 105.773 157.825 106.668 157.298 107.614C156.35 109.171 155.29 110.723 154.468 112.35C153.917 113.24 153.315 114.125 152.81 115.039C151.942 116.493 150.999 117.938 150.205 119.434C149.616 120.32 148.995 121.196 148.468 122.119L145.587 126.933L143.948 129.749L141.772 133.058C141.244 131.221 140.698 129.32 139.245 127.977C137.293 126.174 134.636 126.467 132.204 126.603L132.11 126.318C131.676 125.745 131.429 124.943 131.088 124.3C130.056 122.366 128.426 120.506 126.586 119.299C123.588 117.327 120.446 117.425 117.07 118.143C116.052 115.92 114.712 113.524 112.316 112.559C110.467 111.814 108.641 112.21 106.899 112.997C106.927 112.079 107.436 111.441 107.908 110.686L110.532 106.16L112.279 103.284L114.814 99.0289C115.487 98.2086 116.019 97.0434 116.565 96.1205L119.302 91.5948C119.932 90.7046 120.455 89.6792 121.015 88.7377C122.272 86.6543 123.509 84.5616 124.732 82.4595C125.536 81.4575 126.171 80.0732 126.834 78.9546C138.092 60.4929 149.009 41.7283 159.838 23.0103L159.833 23.015Z" fill="#465BE2"/>
<path d="M189.84 29.5964H189.985C191.876 30.7989 197.783 35.3479 199.515 35.8839C198.231 38.6011 196.788 41.3883 195.056 43.8446C187.001 57.8132 178.801 71.6979 170.462 85.4987C166.646 91.9074 162.495 98.2834 159.012 104.869C158.414 105.769 157.826 106.664 157.298 107.61C156.35 109.167 155.29 110.719 154.468 112.345C153.917 113.235 153.315 114.121 152.811 115.035C151.942 116.489 150.999 117.934 150.205 119.43C149.617 120.315 148.996 121.192 148.468 122.114L145.587 126.929L143.948 129.744L141.772 133.053C141.244 131.217 140.698 129.315 139.246 127.973C137.294 126.169 134.637 126.463 132.204 126.598L132.111 126.314C134.735 122.935 136.855 118.828 139.017 115.132C142.211 109.689 145.437 104.263 148.697 98.8567C160.852 78.6053 173.637 57.953 184.928 37.2588L184.858 37.105C186.866 35.3479 188.458 31.8988 189.845 29.601L189.84 29.5964Z" fill="#304CB2"/>
<path d="M189.84 29.5964H189.985C191.876 30.7989 197.783 35.3479 199.515 35.8839C198.231 38.6011 196.788 41.3883 195.056 43.8446C191.969 41.4536 188.351 39.1325 184.923 37.2542L184.853 37.1004C186.861 35.3432 188.453 31.8942 189.84 29.5964Z" fill="#A0B1C4"/>
<path d="M159.833 23.0154C163.107 24.7446 166.366 26.6229 169.747 28.1377L169.887 28.3335C168.57 29.3589 163.728 38.62 162.593 40.5542L136.542 84.7252C132.297 91.819 128.09 98.9315 123.92 106.072C121.935 109.418 119.769 112.709 117.887 116.111C117.541 116.741 117.224 117.435 117.065 118.139C116.047 115.916 114.707 113.52 112.311 112.555C110.462 111.809 108.637 112.206 106.895 112.993C106.923 112.075 107.432 111.437 107.903 110.681L110.528 106.156L112.274 103.28L114.81 99.0247C115.482 98.2044 116.014 97.0392 116.561 96.1163L119.297 91.5906C119.927 90.7004 120.45 89.675 121.011 88.7335C122.267 86.6501 123.504 84.5574 124.728 82.4553C125.531 81.4533 126.166 80.069 126.829 78.9504C138.087 60.4887 149.005 41.7241 159.833 23.0061V23.0154Z" fill="#5C72F6"/>
<path d="M164.494 15.376L166.969 11.1439C169.476 6.87458 171.97 1.56586 177.232 0.265484C179.068 -0.186619 180.94 -0.037472 182.738 0.51717C187.319 1.93873 194.809 7.16821 199.207 9.80626C202.462 11.6892 205.563 13.6235 206.618 17.4874C207.785 21.7707 205.661 25.5273 203.555 29.1022L199.52 35.8791C197.788 35.3478 191.876 30.7941 189.99 29.5869H189.845C188.458 31.8894 186.866 35.3384 184.858 37.0956C179.819 34.2571 174.963 31.1157 169.892 28.3238L169.752 28.1281C166.371 26.618 163.112 24.7396 159.838 23.0058C161.328 20.4563 162.794 17.7763 164.503 15.3667L164.494 15.376Z" fill="#5C72F6"/>
<path d="M199.207 9.8111C202.462 11.6941 205.562 13.6283 206.617 17.4922C207.785 21.7755 205.66 25.5322 203.554 29.107L199.52 35.8839C197.787 35.3526 191.876 30.7989 189.989 29.5918C193.384 26.3152 194.612 21.2209 198.11 17.7718C198.791 15.0779 199.431 12.6263 199.212 9.8111H199.207Z" fill="#465BE2"/>
<path d="M174.753 20.8153C179.861 23.5652 184.909 26.5435 189.844 29.5964C188.458 31.8942 186.865 35.3432 184.857 37.1003C179.819 34.2619 174.963 31.1205 169.892 28.3286L169.751 28.1329C171.615 25.905 172.945 23.1271 174.757 20.8153H174.753Z" fill="#C2C9D4"/>
<path d="M159.833 23.0151C161.323 20.4656 162.789 17.7856 164.498 15.3759C167.916 17.175 171.395 18.9088 174.753 20.8151C172.941 23.1269 171.61 25.9048 169.747 28.1327C166.366 26.6226 163.107 24.7442 159.833 23.0104V23.0151Z" fill="#DCDDE0"/>
<path d="M69.067 121.373C81.4412 126.575 93.6287 132.359 106.092 137.332C106.279 138.423 106.157 139.327 105.998 140.408C105.98 143.703 105.9 146.999 105.756 150.289C102.809 149.492 94.7868 145.125 91.4901 143.638C81.0723 138.949 70.4491 134.713 60.1201 129.819L62.3802 127.61C70.6126 130.751 78.7516 134.699 86.8439 138.222C92.9423 140.874 99.9233 143.312 105.629 146.677L105.704 140.348C100.96 138.982 96.1596 136.386 91.6068 134.405C83.3277 130.886 75.0813 127.288 66.8723 123.611L69.067 121.369V121.373Z" fill="#DCDDE0"/>
<path d="M105.69 156.358C117.201 160.86 127.871 165.889 139.161 170.918C143.327 172.773 147.534 174.931 151.807 176.502C151.12 177.332 150.396 178.152 149.757 179.019C134.389 172.526 119.381 165.344 104.135 158.586C104.21 158.525 104.168 158.562 104.243 158.497C105.05 157.798 105.069 157.318 105.695 156.353L105.69 156.358Z" fill="#DCDDE0"/>
<path d="M55.3899 133.692L90.2059 149.138C93.2225 150.476 102.814 155.929 105.69 156.358C105.989 157.406 105.844 157.919 104.406 158.707C102.814 157.956 58.6445 138.67 53.0317 136.032L55.3899 133.692Z" fill="#DCDDE0"/>
<path d="M157.298 107.61C157.825 106.663 158.414 105.769 159.011 104.869C160.281 106.496 197.783 121.266 203.386 124.212C202.662 124.976 201.915 125.731 201.21 126.514C191.497 122.436 181.813 118.302 172.147 114.116C167.239 112 161.981 110.145 157.298 107.614V107.61Z" fill="#DCDDE0"/>
<path d="M48.6049 140.082L77.2385 152.811C82.0668 154.946 93.7593 159.439 98.3775 161.974C97.0607 162.589 95.5431 163.33 94.1796 163.81C93.0215 162.417 50.8789 144.64 46.2935 142.389L48.6049 140.077V140.082Z" fill="#DCDDE0"/>
<path d="M154.468 112.345C156.854 113.93 163.298 116.172 166.287 117.449L197.138 130.597L194.813 133.026L166.702 121.019C162.121 119.052 157.256 117.286 152.81 115.035C153.315 114.121 153.922 113.236 154.468 112.345Z" fill="#DCDDE0"/>
<path d="M3.50191 164.346C15.7128 170.228 34.4049 179.816 46.7325 185.451L41.9322 186.033C38.9671 183.866 27.0271 179.089 23.4875 177.564C15.6147 174.199 7.78855 170.746 -0.000244141 167.203C1.12511 166.215 2.33453 165.297 3.50191 164.351V164.346Z" fill="#DCDDE0"/>
<path d="M150.2 119.43C152.185 121.266 184.862 134.578 190.83 137.085L188.248 139.583L163.004 128.658C158.18 126.58 153.044 124.678 148.463 122.11C148.991 121.187 149.612 120.311 150.2 119.425V119.43Z" fill="#DCDDE0"/>
<path d="M73.97 117.062L76.3281 114.787C86.3443 118.861 96.4585 123.345 106.241 127.945L106.166 131.543C106.059 131.366 105.994 131.152 105.844 131.007C105.405 130.578 77.6542 118.656 73.97 117.062Z" fill="#DCDDE0"/>
<path d="M82.8281 108.64C90.6543 112.061 98.4104 115.794 106.325 118.982L106.316 122.306C101.791 120.604 97.3504 118.465 92.9283 116.512C88.8005 114.69 84.5232 112.998 80.54 110.886L82.8328 108.645L82.8281 108.64Z" fill="#DCDDE0"/>
<path d="M89.076 102.693L107.904 110.681C107.432 111.436 106.923 112.075 106.895 112.993L106.689 113.352C102.295 112.285 91.1633 107.13 86.7786 104.935L89.076 102.693Z" fill="#DCDDE0"/>
<path d="M93.8201 163.643L97.7331 161.611C99.3955 162.729 110.794 167.698 113.605 168.914C112.909 169.767 112.185 170.559 111.41 171.342C105.545 168.826 99.5683 166.421 93.8201 163.643Z" fill="#DCDDE0"/>
<path d="M95.8699 96.3956C101.343 98.6655 106.764 101.089 112.269 103.28L110.523 106.155C104.817 103.592 99.0825 101.094 93.3203 98.6515C94.1842 97.9104 95.0294 97.16 95.8699 96.3956Z" fill="#DCDDE0"/>
<path d="M102.394 89.9915C107.096 91.9584 112.036 93.7715 116.556 96.1159C116.01 97.0387 115.478 98.2039 114.805 99.0243C113.829 97.6353 102.375 93.352 99.9141 92.3313L102.394 89.9915Z" fill="#DCDDE0"/>
<path d="M109.033 83.6155C113.068 85.1862 117.027 87.0319 121.011 88.7331C120.45 89.6746 119.927 90.7 119.297 91.5902C115.547 89.1433 110.532 87.7077 106.442 85.7874L109.038 83.6155H109.033Z" fill="#DCDDE0"/>
<path d="M117.77 75.4357C120.656 76.6802 123.756 78.2695 126.829 78.9593C126.171 80.0779 125.531 81.4622 124.728 82.4643C123.817 81.1126 117.009 78.9687 115.169 78.0132L117.775 75.4357H117.77Z" fill="#DCDDE0"/>
</g>
<defs>
<clipPath id="clip0_4023_2455">
<rect width="236.741" height="231.519" fill="white"/>
</clipPath>
</defs>
</svg>
