<svg width="264" height="81" viewBox="0 0 264 81" fill="none" xmlns="http://www.w3.org/2000/svg">
<path d="M22.4676 80.5C18.4176 80.5 14.3276 79.79 10.2076 78.36C6.08758 76.93 2.69758 75.06 0.0475791 72.73C-0.152421 70.4 0.277579 68.45 1.34758 66.85C2.40758 65.26 3.93758 64.33 5.92758 64.06C7.91758 65.92 10.3276 67.4 13.1476 68.49C15.9676 69.59 18.7476 70.13 21.4676 70.13C25.7876 70.13 29.1776 69.28 31.6276 67.59C34.0876 65.9 35.3776 63.55 35.5176 60.56C35.5176 56.64 34.1176 53.85 31.3276 52.19C29.7976 51.26 28.3676 50.53 27.0476 50C24.8576 49.2 22.7276 48.44 20.6676 47.71C15.2176 45.85 10.8376 43.76 7.51758 41.43C3.13758 38.31 0.937579 33.72 0.937579 27.68C0.937579 21.64 3.09758 16.82 7.41758 13.23C11.6676 9.58 17.4176 7.75 24.6576 7.75C28.5076 7.75 32.3676 8.38 36.2176 9.64C40.0676 10.9 43.1976 12.56 45.5876 14.62C45.7176 17.01 45.2876 18.94 44.2876 20.4C43.2876 21.86 41.7976 22.73 39.8076 22.99C35.4276 19.74 30.5776 18.11 25.2576 18.11C21.8076 18.11 19.0776 18.87 17.0876 20.4C15.0976 21.93 14.0976 24.02 14.0976 26.68C14.0976 29.54 15.0976 31.66 17.0876 33.06C19.2176 34.39 22.7376 35.88 27.6476 37.54L33.6276 39.53C35.2876 40.06 37.1176 40.96 39.1076 42.22C41.2976 43.42 42.9976 44.71 44.1876 46.11C47.2376 49.56 48.7676 53.98 48.7676 59.36C48.7676 65.87 46.4076 71.02 41.6976 74.81C36.9776 78.6 30.5676 80.49 22.4676 80.49V80.5Z" fill="white"/>
<path d="M66.4076 15.34C64.1476 15.34 62.2676 14.61 60.7776 13.15C59.2876 11.69 58.5376 9.86 58.5376 7.67C58.5376 5.48 59.2876 3.65 60.7776 2.19C62.2776 0.73 64.1476 0 66.4076 0C68.6676 0 70.4476 0.73 71.9376 2.19C73.4376 3.65 74.1776 5.48 74.1776 7.67C74.1776 9.86 73.4276 11.69 71.9376 13.15C70.4476 14.61 68.5976 15.34 66.4076 15.34ZM66.3076 78.81C63.9176 78.81 61.8576 78.35 60.1276 77.41V26.89C62.1176 25.96 64.1776 25.49 66.3076 25.49C68.6976 25.49 70.7576 25.96 72.4876 26.89V77.41C70.8276 78.34 68.7676 78.81 66.3076 78.81Z" fill="white"/>
<path d="M101.488 78.81C98.6276 78.81 96.0076 78.28 93.6176 77.22L82.0576 26.9C83.5876 25.97 85.5776 25.5 88.0376 25.5C90.6976 25.5 92.8576 25.97 94.5176 26.9L102.188 68.15H102.388L110.758 27.1C112.618 26.17 114.938 25.71 117.728 25.71C120.518 25.71 122.648 26.18 124.508 27.1L132.878 68.05H133.178L140.548 26.9C142.078 25.97 144.068 25.5 146.528 25.5C148.988 25.5 150.978 25.97 152.508 26.9L141.948 77.22C139.558 78.28 136.928 78.81 134.078 78.81C130.818 78.81 127.998 78.28 125.608 77.22L117.638 39.15H117.438L109.568 77.22C107.178 78.28 104.488 78.81 101.498 78.81H101.488Z" fill="white"/>
<path d="M203.618 55.99H170.238C170.768 60.64 172.198 64.21 174.518 66.7C176.848 69.19 179.968 70.44 183.888 70.44C188.208 70.44 192.228 69.28 195.948 66.95C199.938 67.62 201.458 70.21 200.528 74.72C198.268 76.45 195.458 77.84 192.108 78.9C188.758 79.96 185.448 80.49 182.198 80.49C174.828 80.49 168.878 77.93 164.358 72.82C159.978 67.64 157.778 60.76 157.778 52.19C157.778 43.62 159.968 36.61 164.358 31.56C168.878 26.38 174.818 23.79 182.198 23.79C189.108 23.79 194.488 26.07 198.338 30.62C202.188 35.17 204.118 41.47 204.118 49.5C204.118 51.03 203.948 53.19 203.618 55.98V55.99ZM170.338 47.72H192.358C192.028 38.22 188.568 33.47 181.998 33.47C175.428 33.47 171.268 38.22 170.338 47.72Z" fill="white"/>
<path d="M242.088 80.5C236.768 80.5 232.218 78.18 228.438 73.53L224.448 78.81C221.058 78.81 218.498 78.35 216.778 77.41V6.17C218.438 5.31 220.498 4.87 222.958 4.87C225.418 4.87 227.478 5.3 229.138 6.17V31.68C232.928 26.5 237.938 23.91 244.188 23.91C249.898 23.91 254.518 26.47 258.038 31.58C261.488 36.63 263.218 43.51 263.218 52.21C263.218 60.91 261.288 67.72 257.438 72.84C253.648 77.96 248.538 80.51 242.088 80.51V80.5ZM239.498 70.54C242.948 70.54 245.608 68.9 247.468 65.61C249.328 62.32 250.258 57.69 250.258 51.71C250.258 46.06 249.378 41.69 247.618 38.61C245.858 35.52 243.348 33.98 240.098 33.98C235.318 33.98 231.658 36.44 229.138 41.35V64.17C231.598 68.42 235.048 70.55 239.498 70.55V70.54Z" fill="white"/>
</svg>
